<svg width="50" height="51" viewBox="0 0 50 51" fill="none" xmlns="http://www.w3.org/2000/svg">
<path d="M50.0006 25.0051C50.0006 38.8122 38.8077 50.0051 25.0006 50.0051C11.1935 50.0051 0.000610352 38.8122 0.000610352 25.0051C0.000610352 11.198 11.1935 0.00512695 25.0006 0.00512695C38.8077 0.00512695 50.0006 11.198 50.0006 25.0051Z" fill="#AC908F"/>
<path d="M18.4859 30.1385C17.8246 29.3491 17.1419 28.6665 16.4379 28.0905C15.7339 27.5145 15.0086 27.0451 14.2619 26.6825V26.1065C15.7339 25.3598 17.1419 24.2078 18.4859 22.6505H19.6059C19.2646 23.3758 18.9233 24.0158 18.5819 24.5705C18.2406 25.1038 17.9099 25.5518 17.5899 25.9145V26.8745C17.9099 27.2158 18.2406 27.6638 18.5819 28.2185C18.9233 28.7518 19.2646 29.3918 19.6059 30.1385H18.4859ZM17.4299 27.0665V25.7225H36.4059V27.0665H17.4299Z" fill="#FFF6F5"/>
</svg>
