<svg width="20" height="20" viewBox="0 0 20 20" fill="none" xmlns="http://www.w3.org/2000/svg">
<path d="M11.5579 19.9325C11.3903 19.9025 10.9353 20.1075 10.9178 19.875C10.9728 17.4247 11.0203 14.9743 11.0878 12.524C11.1528 12.244 12.9031 12.3465 13.2731 12.2665C13.8257 12.1815 13.7732 11.4463 13.9007 11.0263C13.9132 10.4012 14.4333 9.18605 13.4506 9.12854C13.0631 9.02603 11.4528 9.26105 11.3978 8.90601C10.9553 7.71336 12.2405 7.56333 13.1006 7.46582C13.9732 7.3783 13.7157 5.44305 13.8507 4.77545C13.9482 3.71531 11.9229 3.97535 11.2328 3.90785C9.94266 3.92786 8.55247 4.44041 8.00739 5.69808C7.53483 6.61322 7.45983 7.63335 7.35982 8.63847C7.28479 8.85352 6.48719 8.74349 6.24465 8.80099C5.0695 8.79851 5.58456 11.0288 5.48956 11.8064C5.53457 12.649 6.68972 12.3765 7.26479 12.394C7.56983 12.5465 7.3498 13.9067 7.41482 14.2967C7.42731 14.2967 7.43732 14.2967 7.44982 14.2967C7.3848 16.052 7.29731 17.8072 7.19229 19.5624C7.16728 19.725 7.2573 20.08 6.97977 19.97C5.91462 19.89 8.19993 19.675 7.16728 19.2649V19.975L10.9503 20V19.64C10.0127 19.7825 13.2056 19.805 12.258 19.89C12.0204 19.9525 11.7879 19.9125 11.5579 19.9325Z" fill="white"/>
<path d="M19.5589 11.2763C19.4989 9.18855 19.4014 7.10077 19.2563 5.0105C18.6438 0.18235 15.2508 -0.290214 11.1103 0.11234C9.60254 0.184851 8.07483 0.0273304 6.55463 0.164848C5.23195 0.232356 3.82428 0.294865 2.66162 1.00747C1.40145 1.74506 0.743846 3.10274 0.488818 4.49544C0.25879 5.66308 0.0637652 6.82824 0.0512629 8.02339C-0.0487503 9.58112 0.00625586 11.1413 0.141275 12.699C0.25129 14.0567 0.381319 15.4244 0.886367 16.7021C1.42394 18.0022 2.49159 18.8048 3.72925 19.2949C4.7619 19.705 5.91204 19.895 6.97719 19.975C7.25472 20.085 7.16722 19.7325 7.18973 19.5675C7.29473 17.8122 7.38475 16.0595 7.44726 14.3017C7.43475 14.3017 7.42476 14.3017 7.41224 14.3017C7.34725 13.9092 7.56728 12.5515 7.26223 12.399C6.68466 12.3815 5.53199 12.654 5.487 11.8114C5.58201 11.0338 5.06444 8.80349 6.2421 8.806C6.48463 8.751 7.28223 8.86102 7.35724 8.64347C7.45725 7.63836 7.53476 6.61822 8.00483 5.70308C8.54991 4.44542 9.94008 3.93286 11.2303 3.91286C11.9203 3.97785 13.9456 3.72032 13.8481 4.78046C13.7156 5.44806 13.9706 7.38331 13.098 7.47083C12.2379 7.56834 10.9527 7.71837 11.3953 8.91102C11.4503 9.26606 13.0605 9.03104 13.4481 9.13355C14.4307 9.19106 13.9106 10.4087 13.8981 11.0313C13.7706 11.4514 13.8256 12.1865 13.2705 12.2715C12.9005 12.354 11.1503 12.2515 11.0852 12.529C11.0177 14.9793 10.9677 17.4297 10.9152 19.88C10.9327 20.1125 11.3878 19.905 11.5553 19.9375C11.7878 19.9175 12.0179 19.9575 12.2554 19.8975C13.203 19.8125 14.1907 19.79 15.1283 19.6475C16.531 19.4324 17.8187 18.9449 18.6688 17.5597C19.7889 15.6869 19.6514 13.3766 19.5589 11.2763Z" fill="#AC908F"/>
</svg>
