<svg width="18" height="20" viewBox="0 0 18 20" fill="none" xmlns="http://www.w3.org/2000/svg">
<path d="M17.0588 6.5334C16.0447 2.01853 12.1051 0 8.65315 0C8.65315 0 8.65315 0 8.6434 0C5.20114 0 1.27135 2.01853 0.247463 6.52365C-0.903195 11.5553 2.17823 15.8167 4.96711 18.508C6.00075 19.5027 7.32697 20 8.65315 20C9.97933 20 11.3055 19.5027 12.3294 18.508C15.1183 15.8167 18.1997 11.5651 17.0588 6.5334ZM11.8516 7.34276L7.95105 11.2433C7.80478 11.3896 7.61951 11.4578 7.43423 11.4578C7.24896 11.4578 7.06368 11.3896 6.91741 11.2433L5.45468 9.78059C5.17189 9.49781 5.17189 9.02974 5.45468 8.74695C5.73747 8.46416 6.20553 8.46416 6.48832 8.74695L7.43423 9.69283L10.8179 6.30912C11.1007 6.02633 11.5688 6.02633 11.8516 6.30912C12.1344 6.59191 12.1344 7.05997 11.8516 7.34276Z" fill="#AC908F"/>
</svg>
