<svg width="94" height="21" viewBox="0 0 94 21" fill="none" xmlns="http://www.w3.org/2000/svg">
<path d="M2.68799 17.5361C2.14399 17.5361 1.68799 17.4001 1.31999 17.1281C0.967992 16.8561 0.791992 16.4241 0.791992 15.8321C0.791992 15.2721 0.935992 14.7201 1.22399 14.1761C1.52799 13.6321 1.86399 13.1761 2.23199 12.8081C2.27999 12.7601 2.32799 12.7361 2.37599 12.7361C2.50399 12.7361 2.56799 12.8001 2.56799 12.9281C2.56799 12.9761 2.47199 13.1041 2.27999 13.3121C2.10399 13.5201 1.92799 13.7841 1.75199 14.1041C1.57599 14.4241 1.48799 14.7921 1.48799 15.2081C1.48799 15.7361 1.66399 16.1601 2.01599 16.4801C2.36799 16.8161 2.79999 16.9841 3.31199 16.9841C3.39199 16.9841 3.47199 16.9761 3.55199 16.9601C3.63199 16.9601 3.70399 16.9521 3.76799 16.9361C4.08799 16.8561 4.39199 16.7681 4.67999 16.6721C4.98399 16.5761 5.27999 16.4481 5.56799 16.2881C6.43199 15.8241 7.22399 15.1921 7.94399 14.3921C8.67999 13.5921 9.33599 12.7121 9.91199 11.7521C10.504 10.7761 11.016 9.78405 11.448 8.77605C11.896 7.75205 12.264 6.78405 12.552 5.87205C12.792 5.16805 12.912 4.45605 12.912 3.73605C12.912 3.36805 12.856 3.00005 12.744 2.63205C12.648 2.26405 12.48 1.96005 12.24 1.72005C12 1.46405 11.656 1.33605 11.208 1.33605C10.84 1.33605 10.456 1.42405 10.056 1.60005C9.65599 1.76005 9.27199 1.96805 8.90399 2.22405C8.53599 2.46405 8.20799 2.69605 7.91999 2.92005C7.32799 3.38405 6.73599 3.96005 6.14399 4.64805C5.56799 5.33605 5.07999 6.08005 4.67999 6.88005C4.29599 7.66405 4.10399 8.46405 4.10399 9.28005C4.10399 9.63205 4.18399 9.98405 4.34399 10.3361C4.50399 10.6721 4.79199 10.8401 5.20799 10.8401H5.35199C5.99199 10.7441 6.58399 10.4561 7.12799 9.97605C7.67199 9.49605 8.12799 8.93605 8.49599 8.29605C8.87999 7.64005 9.14399 7.02405 9.28799 6.44805C9.31999 6.32005 9.35199 6.20005 9.38399 6.08805C9.41599 5.96005 9.43199 5.84005 9.43199 5.72805C9.43199 5.69605 9.41599 5.63205 9.38399 5.53605C9.36799 5.44005 9.31999 5.39205 9.23999 5.39205C9.03199 5.39205 8.83199 5.49605 8.63999 5.70405C8.44799 5.91205 8.31199 6.01605 8.23199 6.01605C8.08799 6.01605 8.01599 5.95205 8.01599 5.82405C8.01599 5.79205 8.03999 5.75205 8.08799 5.70405C8.26399 5.52805 8.47199 5.36005 8.71199 5.20005C8.95199 5.02405 9.19199 4.93605 9.43199 4.93605C9.65599 4.93605 9.80799 5.01605 9.88799 5.17605C9.98399 5.32005 10.032 5.49605 10.032 5.70405C10.032 5.81605 10.024 5.93605 10.008 6.06405C9.99199 6.17605 9.96799 6.28805 9.93599 6.40005C9.82399 6.86405 9.60799 7.37605 9.28799 7.93605C8.98399 8.48005 8.60799 9.00005 8.15999 9.49605C7.72799 9.99205 7.25599 10.4001 6.74399 10.7201C6.23199 11.0401 5.71199 11.2001 5.18399 11.2001C4.59199 11.2001 4.15199 10.9681 3.86399 10.5041C3.57599 10.0401 3.43199 9.54405 3.43199 9.01605C3.43199 8.88805 3.43999 8.76805 3.45599 8.65605C3.48799 8.52805 3.51199 8.40005 3.52799 8.27205C3.67199 7.53605 3.93599 6.82405 4.31999 6.13605C4.71999 5.44805 5.18399 4.80805 5.71199 4.21605C6.25599 3.60805 6.80799 3.08005 7.36799 2.63205C7.86399 2.23205 8.43999 1.84805 9.09599 1.48005C9.76799 1.09605 10.432 0.904053 11.088 0.904053C11.712 0.904053 12.208 1.08005 12.576 1.43205C12.944 1.76805 13.208 2.20005 13.368 2.72805C13.528 3.25605 13.608 3.78405 13.608 4.31205C13.608 4.92005 13.512 5.52805 13.32 6.13605C13.032 7.04805 12.64 8.00805 12.144 9.01605C11.664 10.0081 11.104 10.9841 10.464 11.9441C9.82399 12.9041 9.12799 13.7841 8.37599 14.5841C7.62399 15.3681 6.83199 16.0081 5.99999 16.5041C5.63199 16.7281 5.24799 16.9121 4.84799 17.0561C4.46399 17.2161 4.06399 17.3441 3.64799 17.4401C3.48799 17.4721 3.32799 17.4961 3.16799 17.5121C3.00799 17.5281 2.84799 17.5361 2.68799 17.5361Z" fill="#AC908F"/>
<path d="M15.3943 16.1681C15.3303 16.1681 15.1863 16.1601 14.9623 16.1441C14.7543 16.1281 14.6343 16.0881 14.6023 16.0241L14.5303 15.8561C14.5303 15.8241 14.5623 15.8081 14.6263 15.8081C14.6903 15.7921 14.7303 15.7841 14.7463 15.7841H15.5383C15.6823 15.7681 15.8583 15.7361 16.0663 15.6881C16.2743 15.6241 16.4583 15.5361 16.6183 15.4241C16.7783 15.3121 16.8583 15.1681 16.8583 14.9921C16.8583 14.8801 16.8183 14.7841 16.7383 14.7041C16.6583 14.6241 16.5783 14.5601 16.4983 14.5121C16.1783 14.3041 15.8343 14.0721 15.4663 13.8161C15.1143 13.5441 14.8183 13.2321 14.5783 12.8801C14.3383 12.5281 14.2183 12.1361 14.2183 11.7041C14.2183 11.2721 14.3543 10.8401 14.6263 10.4081C14.9143 9.96005 15.2743 9.55205 15.7063 9.18405C16.1543 8.80005 16.6183 8.49605 17.0983 8.27205C17.5943 8.04805 18.0503 7.93605 18.4663 7.93605C18.7383 7.93605 19.0263 8.01605 19.3303 8.17605C19.6503 8.32005 19.8103 8.55205 19.8103 8.87205C19.8103 8.96805 19.7703 9.11205 19.6903 9.30405C19.6263 9.48005 19.5303 9.56805 19.4023 9.56805C19.3703 9.56805 19.3463 9.54405 19.3303 9.49605C19.3303 9.43205 19.3303 9.39205 19.3303 9.37605C19.3303 9.28005 19.3383 9.19205 19.3543 9.11205C19.3703 9.01605 19.3783 8.92805 19.3783 8.84805C19.3783 8.56005 19.2343 8.41605 18.9463 8.41605C18.7223 8.41605 18.4343 8.50405 18.0823 8.68005C17.7303 8.84005 17.3863 9.03205 17.0503 9.25605C16.7143 9.46405 16.4583 9.64805 16.2823 9.80805C16.1063 9.98405 15.9063 10.2001 15.6823 10.4561C15.4583 10.6961 15.2663 10.9601 15.1063 11.2481C14.9463 11.5201 14.8663 11.7921 14.8663 12.0641C14.8663 12.4001 15.0023 12.7121 15.2743 13.0001C15.5463 13.2881 15.8583 13.5521 16.2103 13.7921C16.5783 14.0321 16.8983 14.2641 17.1703 14.4881C17.4423 14.7121 17.5783 14.9441 17.5783 15.1841C17.5783 15.4401 17.4343 15.6401 17.1463 15.7841C16.8743 15.9281 16.5623 16.0241 16.2103 16.0721C15.8743 16.1361 15.6023 16.1681 15.3943 16.1681Z" fill="#AC908F"/>
<path d="M22.9342 16.3841C22.5982 16.3841 22.3982 16.2241 22.3342 15.9041C22.2702 15.5841 22.2382 15.2961 22.2382 15.0401C22.2382 14.5921 22.2542 14.1521 22.2862 13.7201C22.3342 13.2721 22.3742 12.8241 22.4062 12.3761C22.3422 12.6001 22.2462 12.9121 22.1182 13.3121C22.0062 13.7121 21.8622 14.1201 21.6862 14.5361C21.5102 14.9521 21.3102 15.3041 21.0862 15.5921C20.8622 15.8801 20.6062 16.0241 20.3182 16.0241C20.1262 16.0241 19.9822 15.9441 19.8862 15.7841C19.7902 15.6241 19.7262 15.4401 19.6942 15.2321C19.6782 15.0081 19.6702 14.8321 19.6702 14.7041C19.6702 13.9521 19.8222 13.1761 20.1262 12.3761C20.4302 11.5761 20.7902 10.8801 21.2062 10.2881C21.2062 10.0481 21.2942 9.80005 21.4702 9.54405C21.6622 9.28805 21.8862 9.05605 22.1422 8.84805C22.3982 8.64005 22.6222 8.49605 22.8142 8.41605C22.9102 8.38405 22.9982 8.36805 23.0782 8.36805C23.1582 8.36805 23.2142 8.40005 23.2462 8.46405C23.2942 8.52805 23.3182 8.60005 23.3182 8.68005C23.3182 8.74405 23.3102 8.81605 23.2942 8.89605C23.2782 8.96005 23.2462 9.01605 23.1982 9.06405C23.0542 9.20805 22.9102 9.33605 22.7662 9.44805C22.6382 9.56005 22.5022 9.70405 22.3582 9.88005C22.0382 10.2641 21.7022 10.7281 21.3502 11.2721C21.0142 11.8161 20.7262 12.3841 20.4862 12.9761C20.2462 13.5521 20.1262 14.0961 20.1262 14.6081C20.1262 14.6721 20.1342 14.8001 20.1502 14.9921C20.1662 15.1681 20.1982 15.3361 20.2462 15.4961C20.3102 15.6401 20.3982 15.7121 20.5102 15.7121C20.6542 15.7121 20.7822 15.6321 20.8942 15.4721C21.0222 15.2961 21.1182 15.1521 21.1822 15.0401C21.3582 14.7201 21.5262 14.3201 21.6862 13.8401C21.8462 13.3601 21.9902 12.8721 22.1182 12.3761C22.2462 11.8801 22.3422 11.4561 22.4062 11.1041C22.4382 10.9921 22.4622 10.8881 22.4782 10.7921C22.4942 10.6801 22.5102 10.5681 22.5262 10.4561C22.5422 10.4081 22.5502 10.3521 22.5502 10.2881C22.5502 10.2081 22.5582 10.1361 22.5742 10.0721C22.6062 9.97605 22.6782 9.92805 22.7902 9.92805C22.8702 9.92805 22.9422 9.95205 23.0062 10.0001C23.0702 10.0481 23.1022 10.1121 23.1022 10.1921V10.2401C23.1022 10.7841 23.0622 11.3201 22.9822 11.8481C22.9182 12.3761 22.8862 12.9201 22.8862 13.4801C22.8862 13.8001 22.8942 14.1361 22.9102 14.4881C22.9262 14.8401 22.9662 15.1841 23.0302 15.5201C23.0302 15.5681 23.0462 15.6401 23.0782 15.7361C23.1102 15.8321 23.1662 15.8801 23.2462 15.8801C23.2942 15.8801 23.3422 15.8641 23.3902 15.8321C23.4542 15.7841 23.4942 15.7521 23.5102 15.7361C23.9102 15.4001 24.2542 14.9681 24.5422 14.4401C24.8302 13.8961 25.0622 13.3841 25.2382 12.9041C25.2862 12.8241 25.3262 12.7841 25.3582 12.7841C25.4062 12.7841 25.4302 12.8241 25.4302 12.9041V13.0001C25.3502 13.2721 25.1982 13.6401 24.9742 14.1041C24.7502 14.5521 24.5022 14.9841 24.2302 15.4001C23.9742 15.8001 23.7262 16.0721 23.4862 16.2161C23.3262 16.3281 23.1422 16.3841 22.9342 16.3841Z" fill="#AC908F"/>
<path d="M26.1112 20.0801C25.8072 20.0801 25.5272 20.0001 25.2712 19.8401C25.0312 19.6961 24.9112 19.4561 24.9112 19.1201C24.9112 18.7361 25.0552 18.3681 25.3432 18.0161C25.6472 17.6641 25.9352 17.3681 26.2072 17.1281C26.6072 16.7921 27.0792 16.4241 27.6232 16.0241C28.1672 15.6241 28.6872 15.3681 29.1832 15.2561C29.1672 14.5521 29.0152 13.8561 28.7272 13.1681C28.4712 13.5201 28.1992 13.8721 27.9112 14.2241C27.6392 14.5601 27.3352 14.8801 26.9992 15.1841C26.8552 15.3121 26.6232 15.4801 26.3032 15.6881C25.9992 15.8961 25.7512 16.0001 25.5592 16.0001C25.3992 16.0001 25.3192 15.9041 25.3192 15.7121C25.3192 15.5521 25.3592 15.3761 25.4392 15.1841C25.5832 14.8161 25.7272 14.4481 25.8712 14.0801C26.0152 13.6961 26.1592 13.3281 26.3032 12.9761C26.4312 12.6881 26.5592 12.3601 26.6872 11.9921C26.8312 11.6241 26.9032 11.2881 26.9032 10.9841C26.9032 10.9361 26.8952 10.8721 26.8792 10.7921C26.8632 10.6961 26.8152 10.6481 26.7352 10.6481C26.6392 10.6481 26.5192 10.7041 26.3752 10.8161C26.2472 10.9281 26.1432 10.9841 26.0632 10.9841C26.0152 10.9841 25.9912 10.9681 25.9912 10.9361C25.9912 10.8401 26.0632 10.7521 26.2072 10.6721C26.3512 10.5761 26.5112 10.5041 26.6872 10.4561C26.8632 10.3921 26.9912 10.3601 27.0712 10.3601C27.2952 10.3601 27.4632 10.4321 27.5752 10.5761C27.6872 10.7041 27.7432 10.8801 27.7432 11.1041C27.7432 11.3761 27.6472 11.7361 27.4552 12.1841C27.2632 12.6321 27.0392 13.0961 26.7832 13.5761C26.5272 14.0401 26.3032 14.4481 26.1112 14.8001C25.9192 15.1361 25.8232 15.3441 25.8232 15.4241C25.8232 15.4721 25.8392 15.4961 25.8712 15.4961C25.9672 15.4961 26.1272 15.4241 26.3512 15.2801C26.5752 15.1361 26.7272 15.0321 26.8072 14.9681C27.5112 14.3601 28.1272 13.6721 28.6552 12.9041C28.6232 12.8401 28.5592 12.7281 28.4632 12.5681C28.3832 12.4081 28.3432 12.2961 28.3432 12.2321C28.3432 12.1361 28.4232 12.0321 28.5832 11.9201C28.7432 11.8081 28.9112 11.7201 29.0872 11.6561C29.2792 11.5761 29.4072 11.5361 29.4712 11.5361C29.5832 11.5361 29.6392 11.5841 29.6392 11.6801C29.6392 11.8241 29.5432 12.0321 29.3512 12.3041C29.1592 12.5761 29.0232 12.7761 28.9432 12.9041C29.1192 13.2561 29.2712 13.6241 29.3992 14.0081C29.5272 14.3921 29.6232 14.7841 29.6872 15.1841C29.7992 15.1841 29.9752 15.2321 30.2152 15.3281C30.4552 15.4241 30.5752 15.5361 30.5752 15.6641C30.5752 15.7121 30.5432 15.7361 30.4792 15.7361C30.4312 15.7361 30.3512 15.6881 30.2392 15.5921C30.1272 15.4961 29.9592 15.4561 29.7352 15.4721C29.7512 15.6001 29.7592 15.7281 29.7592 15.8561C29.7752 15.9841 29.7832 16.1201 29.7832 16.2641C29.7832 16.8561 29.6792 17.3921 29.4712 17.8721C29.2632 18.3681 28.9192 18.8001 28.4392 19.1681C28.1352 19.4081 27.7752 19.6161 27.3592 19.7921C26.9432 19.9841 26.5272 20.0801 26.1112 20.0801ZM28.8232 12.6641C28.9032 12.5361 28.9752 12.4001 29.0392 12.2561C29.1192 12.1121 29.1912 11.9681 29.2552 11.8241C29.1272 11.8881 29.0072 11.9601 28.8952 12.0401C28.7992 12.1041 28.6872 12.1761 28.5592 12.2561C28.6232 12.3201 28.6712 12.3841 28.7032 12.4481C28.7352 12.5121 28.7752 12.5841 28.8232 12.6641ZM26.1832 19.8881C26.5192 19.8881 26.8392 19.7761 27.1432 19.5521C27.4472 19.3441 27.7032 19.1281 27.9112 18.9041C28.3432 18.4401 28.6632 17.9201 28.8712 17.3441C29.0792 16.7841 29.1912 16.1921 29.2072 15.5681C28.9032 15.6641 28.5352 15.8321 28.1032 16.0721C27.6712 16.3121 27.2472 16.6001 26.8312 16.9361C26.4152 17.2721 26.0632 17.6241 25.7752 17.9921C25.5032 18.3761 25.3672 18.7441 25.3672 19.0961C25.3672 19.3361 25.4392 19.5281 25.5832 19.6721C25.7432 19.8161 25.9432 19.8881 26.1832 19.8881Z" fill="#AC908F"/>
<path d="M30.6429 9.06405C30.6429 9.03205 30.6669 8.96005 30.7149 8.84805C30.7789 8.73605 30.8429 8.60005 30.9069 8.44005C31.0349 8.18405 31.1469 7.92005 31.2429 7.64805C31.3549 7.36005 31.4109 7.09605 31.4109 6.85605C31.4109 6.72805 31.3869 6.61605 31.3389 6.52005C31.3069 6.47205 31.3389 6.40005 31.4349 6.30405C31.5309 6.20805 31.6429 6.12005 31.7709 6.04005C31.9149 5.96005 32.0269 5.92805 32.1069 5.94405C32.3469 5.94405 32.4669 6.00805 32.4669 6.13605C32.4669 6.23205 32.4269 6.34405 32.3469 6.47205C32.2669 6.58405 32.1869 6.70405 32.1069 6.83205C31.9309 7.13605 31.7229 7.48005 31.4829 7.86405C31.2589 8.24805 31.0589 8.56805 30.8829 8.82405C30.7229 9.06405 30.6429 9.14405 30.6429 9.06405Z" fill="#AC908F"/>
<path d="M34.0974 16.1681C34.0334 16.1681 33.8894 16.1601 33.6654 16.1441C33.4574 16.1281 33.3374 16.0881 33.3054 16.0241L33.2334 15.8561C33.2334 15.8241 33.2654 15.8081 33.3294 15.8081C33.3934 15.7921 33.4334 15.7841 33.4494 15.7841H34.2414C34.3854 15.7681 34.5614 15.7361 34.7694 15.6881C34.9774 15.6241 35.1614 15.5361 35.3214 15.4241C35.4814 15.3121 35.5614 15.1681 35.5614 14.9921C35.5614 14.8801 35.5214 14.7841 35.4414 14.7041C35.3614 14.6241 35.2814 14.5601 35.2014 14.5121C34.8814 14.3041 34.5374 14.0721 34.1694 13.8161C33.8174 13.5441 33.5214 13.2321 33.2814 12.8801C33.0414 12.5281 32.9214 12.1361 32.9214 11.7041C32.9214 11.2721 33.0574 10.8401 33.3294 10.4081C33.6174 9.96005 33.9774 9.55205 34.4094 9.18405C34.8574 8.80005 35.3214 8.49605 35.8014 8.27205C36.2974 8.04805 36.7534 7.93605 37.1694 7.93605C37.4414 7.93605 37.7294 8.01605 38.0334 8.17605C38.3534 8.32005 38.5134 8.55205 38.5134 8.87205C38.5134 8.96805 38.4734 9.11205 38.3934 9.30405C38.3294 9.48005 38.2334 9.56805 38.1054 9.56805C38.0734 9.56805 38.0494 9.54405 38.0334 9.49605C38.0334 9.43205 38.0334 9.39205 38.0334 9.37605C38.0334 9.28005 38.0414 9.19205 38.0574 9.11205C38.0734 9.01605 38.0814 8.92805 38.0814 8.84805C38.0814 8.56005 37.9374 8.41605 37.6494 8.41605C37.4254 8.41605 37.1374 8.50405 36.7854 8.68005C36.4334 8.84005 36.0894 9.03205 35.7534 9.25605C35.4174 9.46405 35.1614 9.64805 34.9854 9.80805C34.8094 9.98405 34.6094 10.2001 34.3854 10.4561C34.1614 10.6961 33.9694 10.9601 33.8094 11.2481C33.6494 11.5201 33.5694 11.7921 33.5694 12.0641C33.5694 12.4001 33.7054 12.7121 33.9774 13.0001C34.2494 13.2881 34.5614 13.5521 34.9134 13.7921C35.2814 14.0321 35.6014 14.2641 35.8734 14.4881C36.1454 14.7121 36.2814 14.9441 36.2814 15.1841C36.2814 15.4401 36.1374 15.6401 35.8494 15.7841C35.5774 15.9281 35.2654 16.0241 34.9134 16.0721C34.5774 16.1361 34.3054 16.1681 34.0974 16.1681Z" fill="#AC908F"/>
<path d="M53.1269 12.502C52.8574 12.9473 52.5469 13.4102 52.1953 13.8907C51.8555 14.3594 51.4922 14.793 51.1055 15.1915C50.7187 15.5782 50.3203 15.9004 49.9101 16.1583C49.5 16.4161 49.0898 16.545 48.6797 16.545C48.2695 16.545 47.9707 16.4044 47.7832 16.1231C47.6074 15.8536 47.5254 15.5489 47.5371 15.209C47.5371 15.0567 47.5488 14.9219 47.5723 14.8047C47.6074 14.6876 47.6426 14.5821 47.6777 14.4883C47.7129 14.3946 47.748 14.3008 47.7832 14.2071C47.8301 14.1016 47.8711 13.9844 47.9062 13.8555C47.9531 13.7032 47.9531 13.5684 47.9062 13.4512C47.8711 13.3223 47.8242 13.211 47.7656 13.1172C47.6601 13.2344 47.5371 13.3399 47.3965 13.4336C47.2676 13.5157 47.1035 13.5567 46.9043 13.5567C46.7637 13.5567 46.6348 13.4922 46.5176 13.3633C46.4004 13.2227 46.3418 13.0528 46.3418 12.8536C46.3418 12.6895 46.3769 12.5547 46.4473 12.4493C46.5293 12.3438 46.6172 12.2618 46.7109 12.2032C46.8164 12.1446 46.9219 12.1036 47.0273 12.0801C47.1328 12.0567 47.2207 12.045 47.291 12.045C47.3262 12.045 47.3965 12.0508 47.5019 12.0626C47.6191 12.0743 47.7422 12.0919 47.8711 12.1153C48.293 11.7754 48.5918 11.4708 48.7676 11.2012C48.9551 10.92 48.9726 10.668 48.8203 10.4454C48.7266 10.293 48.6094 10.2169 48.4687 10.2169C48.3281 10.2051 48.1816 10.2403 48.0293 10.3223C47.8769 10.3926 47.7246 10.4864 47.5723 10.6036C47.4316 10.7208 47.3027 10.8321 47.1855 10.9376C46.9512 11.1719 46.6875 11.4532 46.3945 11.7813C46.1133 12.0977 45.8789 12.3614 45.6914 12.5723C45.6094 12.9239 45.5273 13.293 45.4453 13.6797C45.375 14.0196 45.293 14.4063 45.1992 14.8399C45.1172 15.2618 45.0293 15.7012 44.9355 16.1583C44.8652 16.1934 44.7891 16.2169 44.707 16.2286C44.6367 16.252 44.5723 16.2696 44.5137 16.2813C44.4434 16.293 44.373 16.2989 44.3027 16.2989C44.209 16.2989 44.1211 16.293 44.0391 16.2813C43.957 16.2813 43.8926 16.252 43.8457 16.1934C43.7871 16.1465 43.7578 16.0645 43.7578 15.9473C43.7461 15.8301 43.7754 15.6661 43.8457 15.4551C43.9394 15.1504 44.0566 14.7461 44.1973 14.2422C44.3379 13.7266 44.4844 13.1641 44.6367 12.5547C44.7891 11.9454 44.9414 11.3126 45.0937 10.6563C45.2578 9.98833 45.4101 9.35552 45.5508 8.75787C45.6914 8.14849 45.8086 7.60357 45.9023 7.1231C46.0078 6.63091 46.084 6.24419 46.1309 5.96294C46.166 5.65826 46.2012 5.36529 46.2363 5.08404C46.2598 4.84966 46.2715 4.62115 46.2715 4.39849C46.2832 4.16412 46.2715 3.98833 46.2363 3.87115C46.2949 3.81255 46.3769 3.75982 46.4824 3.71294C46.5879 3.66607 46.7051 3.63091 46.834 3.60747C46.9629 3.57232 47.1152 3.54302 47.291 3.51958C47.4902 3.49615 47.6543 3.49029 47.7832 3.50201C47.9238 3.51372 48.0234 3.57232 48.082 3.67779C48.1523 3.79497 48.1641 3.99419 48.1172 4.27544C48.082 4.54497 48 4.92583 47.8711 5.41802C47.707 6.05083 47.5371 6.63091 47.3613 7.15826C47.1973 7.67388 47.0332 8.16021 46.8691 8.61724C46.7168 9.07427 46.5644 9.51958 46.4121 9.95318C46.2715 10.3751 46.1426 10.8086 46.0254 11.254C46.2598 10.9141 46.5527 10.5567 46.9043 10.1817C47.2559 9.79498 47.6543 9.47857 48.0996 9.23248C48.5684 8.98638 48.9551 8.86333 49.2598 8.86333C49.6348 8.86333 49.9043 8.99224 50.0684 9.25005C50.2324 9.49615 50.3086 9.78912 50.2969 10.129C50.2851 10.3985 50.2148 10.6504 50.0859 10.8848C49.9687 11.1075 49.8223 11.3184 49.6465 11.5176C49.4707 11.7051 49.2832 11.8692 49.084 12.0098C48.8848 12.1504 48.7148 12.2676 48.5742 12.3614C48.7383 12.4551 48.8789 12.584 48.9961 12.7481C49.125 12.9004 49.1836 13.0938 49.1719 13.3282C49.1601 13.6446 49.0957 13.9258 48.9785 14.1719C48.873 14.4063 48.8203 14.6231 48.8203 14.8223C48.832 14.9747 48.8613 15.086 48.9082 15.1563C48.9668 15.2266 49.084 15.2618 49.2598 15.2618C49.5762 15.2618 49.9043 15.127 50.2441 14.8575C50.5957 14.5879 50.9238 14.2774 51.2285 13.9258C51.5332 13.5743 51.8144 13.2286 52.0723 12.8887C52.3301 12.5372 52.5293 12.2794 52.6699 12.1153C52.8691 11.9044 53.0332 11.8516 53.1621 11.9571C53.3027 12.0508 53.291 12.2325 53.1269 12.502Z" fill="#AC908F"/>
<path d="M55.9043 5.64654C55.8691 5.77544 55.7988 5.90435 55.6934 6.03326C55.5996 6.15044 55.4883 6.25005 55.3594 6.33208C55.2422 6.4024 55.1191 6.44927 54.9902 6.47271C54.8613 6.49615 54.7559 6.47271 54.6738 6.4024C54.4277 6.2149 54.2988 6.01568 54.2871 5.80474C54.2754 5.58208 54.3281 5.37701 54.4453 5.18951C54.5625 4.99029 54.709 4.82622 54.8848 4.69732C55.0605 4.55669 55.2129 4.47466 55.3418 4.45122C55.4707 4.42779 55.5762 4.45708 55.6582 4.53912C55.7519 4.60943 55.8223 4.70904 55.8691 4.83794C55.916 4.95513 55.9394 5.0899 55.9394 5.24224C55.9512 5.39458 55.9394 5.52935 55.9043 5.64654ZM53.4785 9.39068C53.5371 9.32037 53.6484 9.26177 53.8125 9.2149C53.9766 9.16802 54.1465 9.13287 54.3223 9.10943C54.498 9.07427 54.6562 9.05669 54.7969 9.05669C54.9492 9.04498 55.0371 9.04498 55.0605 9.05669C55.0723 9.06841 55.043 9.19146 54.9726 9.42583C54.9023 9.66021 54.8144 9.9356 54.709 10.252C54.6035 10.5684 54.4922 10.8965 54.375 11.2364C54.2578 11.5645 54.1699 11.834 54.1113 12.045C54.0527 12.2559 53.9824 12.4961 53.9004 12.7657C53.8184 13.0235 53.7422 13.2813 53.6719 13.5391C53.6133 13.7852 53.5723 14.0196 53.5488 14.2422C53.5254 14.4649 53.543 14.6348 53.6016 14.752C53.6601 14.8926 53.7246 14.9922 53.7949 15.0508C53.8652 15.0977 53.9414 15.1211 54.0234 15.1211C54.2578 15.1211 54.5508 14.9922 54.9023 14.7344C55.2656 14.4766 55.6289 14.1719 55.9922 13.8204C56.3672 13.4571 56.7129 13.0938 57.0293 12.7305C57.3457 12.3555 57.5801 12.0567 57.7324 11.834C57.8262 11.7169 57.9199 11.6407 58.0137 11.6055C58.1191 11.5704 58.2012 11.5762 58.2598 11.6231C58.3301 11.67 58.3652 11.7461 58.3652 11.8516C58.3769 11.9571 58.3418 12.0801 58.2598 12.2208C58.0723 12.5489 57.7969 12.9415 57.4336 13.3985C57.0703 13.8438 56.6836 14.2774 56.2734 14.6993C55.8633 15.1094 55.459 15.461 55.0605 15.754C54.6738 16.0469 54.3574 16.1993 54.1113 16.211C53.9121 16.2227 53.7129 16.1876 53.5137 16.1055C53.3262 16.0352 53.1504 15.9356 52.9863 15.8067C52.834 15.6661 52.7051 15.5079 52.5996 15.3321C52.4941 15.1446 52.4355 14.9512 52.4238 14.752C52.3887 14.459 52.3887 14.0606 52.4238 13.5567C52.459 13.0411 52.5234 12.5196 52.6172 11.9922C52.7109 11.4532 52.8281 10.9434 52.9687 10.4629C53.1211 9.98248 53.291 9.62505 53.4785 9.39068Z" fill="#AC908F"/>
<path d="M63.4629 11.5528C63.5098 11.4825 63.5684 11.4415 63.6387 11.4297C63.7207 11.4063 63.7851 11.4122 63.832 11.4473C63.8789 11.4825 63.9023 11.5411 63.9023 11.6231C63.9141 11.7051 63.8848 11.8165 63.8144 11.9571C63.5801 12.4024 63.2695 12.8829 62.8828 13.3985C62.5078 13.9141 62.1094 14.4004 61.6875 14.8575C61.2656 15.3028 60.8555 15.6719 60.457 15.9649C60.0586 16.2579 59.7246 16.4044 59.4551 16.4044C59.0684 16.4044 58.7461 16.3282 58.4883 16.1758C58.2305 16.0235 58.0254 15.836 57.873 15.6133C57.7324 15.3907 57.6328 15.1504 57.5742 14.8926C57.5156 14.6231 57.498 14.377 57.5215 14.1544C57.5332 13.9669 57.5742 13.6329 57.6445 13.1524C57.7148 12.6602 57.8086 12.0977 57.9258 11.4649C58.043 10.8204 58.1719 10.1348 58.3125 9.40826C58.4648 8.66998 58.623 7.96099 58.7871 7.2813C58.5879 7.30474 58.3887 7.32818 58.1894 7.35162C57.9902 7.37505 57.8086 7.38677 57.6445 7.38677C57.2695 7.38677 56.918 7.34576 56.5898 7.26372C56.25 7.16997 55.998 7.08208 55.834 7.00005C55.7402 6.95318 55.6992 6.88872 55.7109 6.80669C55.7226 6.71294 55.7578 6.62505 55.8164 6.54302C55.875 6.44927 55.9512 6.3731 56.0449 6.31451C56.1269 6.24419 56.2031 6.20904 56.2734 6.20904C56.4961 6.23247 56.7363 6.25591 56.9941 6.27935C57.2519 6.29107 57.5332 6.29107 57.8379 6.27935C58.0605 6.26763 58.2715 6.25005 58.4707 6.22662C58.6816 6.20318 58.8867 6.17388 59.0859 6.13872C59.2383 5.57622 59.3848 5.0899 59.5254 4.67974C59.6777 4.25787 59.8125 3.9649 59.9297 3.80083C59.9648 3.74224 60.041 3.69537 60.1582 3.66021C60.2871 3.61333 60.4219 3.58404 60.5625 3.57232C60.7031 3.54888 60.8379 3.54888 60.9668 3.57232C61.0957 3.58404 61.1894 3.62505 61.248 3.69537C61.3066 3.78912 61.3301 4.02935 61.3184 4.41607C61.3066 4.80279 61.2422 5.29497 61.125 5.89263C61.6172 5.89263 62.0508 5.92193 62.4258 5.98052C62.8125 6.0274 63.1406 6.08599 63.4101 6.1563C63.6797 6.2149 63.8965 6.27935 64.0605 6.34966C64.2246 6.40826 64.3476 6.44927 64.4297 6.47271C64.5117 6.49615 64.5527 6.55474 64.5527 6.64849C64.5644 6.74224 64.5469 6.84185 64.5 6.94732C64.4648 7.04107 64.4004 7.1231 64.3066 7.19341C64.2129 7.26372 64.1074 7.28716 63.9902 7.26372C63.873 7.25201 63.7383 7.22857 63.5859 7.19341C63.4453 7.15826 63.2695 7.12896 63.0586 7.10552C62.8594 7.08208 62.6191 7.05865 62.3379 7.03521C62.0566 7.01177 61.7285 7.00005 61.3535 7.00005C61.2832 7.00005 61.2012 7.00591 61.1074 7.01763C61.0254 7.01763 60.9375 7.01763 60.8437 7.01763C60.7969 7.20513 60.75 7.39263 60.7031 7.58013C60.668 7.75591 60.6152 7.94341 60.5449 8.14263C60.3926 8.61138 60.2168 9.12115 60.0176 9.67193C59.8418 10.1524 59.6309 10.7032 59.3848 11.3243C59.1387 11.9454 58.8633 12.6075 58.5586 13.3106C58.4883 13.8145 58.4941 14.2012 58.5762 14.4708C58.6699 14.7286 58.7812 14.9161 58.9101 15.0333C59.0625 15.1622 59.25 15.2325 59.4726 15.2442C59.6484 15.2676 59.8594 15.209 60.1055 15.0684C60.3633 14.9161 60.6269 14.7169 60.8965 14.4708C61.166 14.2247 61.4355 13.9551 61.7051 13.6622C61.9863 13.3692 62.2441 13.0821 62.4785 12.8008C62.7129 12.5196 62.918 12.2676 63.0937 12.045C63.2695 11.8106 63.3926 11.6465 63.4629 11.5528Z" fill="#AC908F"/>
<path d="M65.3965 15.4024C65.7598 15.4024 66.1582 15.2618 66.5918 14.9805C67.0371 14.6876 67.4648 14.3477 67.875 13.961C68.2969 13.5743 68.6777 13.1817 69.0176 12.7833C69.3691 12.3731 69.6328 12.045 69.8086 11.7989C69.9141 11.6465 70.0137 11.5586 70.1074 11.5352C70.2012 11.5001 70.2715 11.5118 70.3184 11.5704C70.3652 11.629 70.3828 11.7227 70.3711 11.8516C70.3594 11.9688 70.3066 12.1036 70.2129 12.2559C70.1309 12.3965 69.9902 12.6016 69.791 12.8711C69.6035 13.129 69.375 13.4161 69.1055 13.7325C68.8476 14.0372 68.5488 14.3536 68.209 14.6817C67.8809 14.9981 67.5351 15.2911 67.1719 15.5606C66.8086 15.8184 66.4336 16.0294 66.0469 16.1934C65.6601 16.3692 65.2793 16.4571 64.9043 16.4571C64.3887 16.4571 63.9551 16.3575 63.6035 16.1583C63.2637 15.9708 62.9883 15.7247 62.7773 15.42C62.5781 15.1153 62.4375 14.7813 62.3555 14.418C62.2734 14.043 62.2324 13.6739 62.2324 13.3106C62.2324 12.9473 62.3144 12.4961 62.4785 11.9571C62.6426 11.418 62.8828 10.9024 63.1992 10.4102C63.5273 9.9063 63.9375 9.47857 64.4297 9.12701C64.9219 8.76373 65.5019 8.58208 66.1699 8.58208C66.5449 8.58208 66.8613 8.71099 67.1191 8.9688C67.3887 9.22662 67.5176 9.57818 67.5059 10.0235C67.5059 10.2344 67.4707 10.4454 67.4004 10.6563C67.3301 10.8555 67.2363 11.0372 67.1191 11.2012C67.0019 11.3536 66.8613 11.4766 66.6973 11.5704C66.5449 11.6641 66.375 11.711 66.1875 11.711C66.0351 11.711 65.918 11.6583 65.8359 11.5528C65.7656 11.4356 65.7187 11.3067 65.6953 11.1661C65.6836 11.0137 65.6836 10.8672 65.6953 10.7266C65.7187 10.586 65.7422 10.4922 65.7656 10.4454C65.8242 10.3633 65.8887 10.3047 65.959 10.2696C66.0293 10.2344 66.1113 10.1934 66.2051 10.1465C66.2754 10.1114 66.3281 10.0586 66.3633 9.98833C66.4101 9.91802 66.4336 9.84185 66.4336 9.75982C66.4336 9.67779 66.4101 9.60748 66.3633 9.54888C66.3164 9.49029 66.2402 9.46099 66.1348 9.46099C66.0293 9.46099 65.8359 9.54888 65.5547 9.72466C65.2851 9.88873 65.0039 10.1407 64.7109 10.4805C64.4297 10.8086 64.1777 11.2247 63.9551 11.7286C63.7324 12.2325 63.6152 12.8184 63.6035 13.4864C63.5918 13.8731 63.6445 14.1895 63.7617 14.4356C63.8789 14.6817 64.0254 14.8751 64.2012 15.0157C64.3769 15.1563 64.5703 15.2559 64.7812 15.3145C64.9922 15.3731 65.1973 15.4024 65.3965 15.4024Z" fill="#AC908F"/>
<path d="M78.0176 12.1329C78.0996 12.0391 78.1816 11.9922 78.2637 11.9922C78.3574 11.9805 78.4277 12.004 78.4746 12.0626C78.5332 12.1094 78.5566 12.1856 78.5449 12.2911C78.5449 12.3965 78.498 12.5137 78.4043 12.6426C78.1816 12.9473 77.9238 13.2637 77.6309 13.5919C77.3379 13.9083 77.0215 14.2188 76.6816 14.5235C76.3535 14.8282 76.0195 15.1153 75.6797 15.3848C75.3398 15.6544 75.0117 15.877 74.6953 16.0528C74.3437 16.252 74.0449 16.3516 73.7988 16.3516C73.5644 16.3516 73.3301 16.1993 73.0957 15.8946C72.8848 15.6251 72.7793 15.3379 72.7793 15.0333C72.791 14.7169 72.8613 14.3243 72.9902 13.8555C73.0723 13.5626 73.1836 13.2169 73.3242 12.8184C73.4766 12.4083 73.5937 12.0157 73.6758 11.6407C73.7695 11.2657 73.7988 10.9493 73.7637 10.6915C73.7285 10.4219 73.5762 10.2872 73.3066 10.2872C73.1191 10.2872 72.9141 10.3516 72.6914 10.4805C72.4805 10.6094 72.2637 10.7794 72.041 10.9903C71.8301 11.1895 71.625 11.418 71.4258 11.6758C71.2266 11.9336 71.0508 12.1856 70.8984 12.4317C70.8047 12.8887 70.7109 13.3399 70.6172 13.7852C70.5351 14.1602 70.4473 14.5704 70.3535 15.0157C70.2715 15.4493 70.1894 15.836 70.1074 16.1758C70.0371 16.2344 69.9609 16.2754 69.8789 16.2989C69.7969 16.3223 69.7207 16.334 69.6504 16.334C69.5684 16.334 69.4863 16.3282 69.4043 16.3165C69.3105 16.293 69.2226 16.2579 69.1406 16.211C69.0703 16.1641 69 16.0997 68.9297 16.0176C68.8594 15.9473 68.8066 15.8477 68.7715 15.7188C69.2988 13.5508 69.7148 11.8106 70.0195 10.4981C70.3242 9.1856 70.5586 8.18365 70.7226 7.49224C70.9101 6.67193 71.0391 6.10357 71.1094 5.78716C71.1445 5.56451 71.1738 5.34771 71.1973 5.13677C71.2207 4.94927 71.2324 4.75591 71.2324 4.55669C71.2324 4.35747 71.2148 4.17583 71.1797 4.01177C71.2734 3.95318 71.373 3.9063 71.4785 3.87115C71.5957 3.83599 71.707 3.80669 71.8125 3.78326C71.9414 3.7481 72.0703 3.7188 72.1992 3.69537C72.3281 3.67193 72.4453 3.66021 72.5508 3.66021C72.6445 3.66021 72.7324 3.67193 72.8144 3.69537C72.8965 3.70708 72.9492 3.74224 72.9726 3.80083C73.043 3.85943 73.0723 3.97662 73.0605 4.1524C73.0605 4.32818 73.0488 4.50982 73.0254 4.69732C72.9785 4.91997 72.9258 5.16021 72.8672 5.41802C72.6211 6.36724 72.3457 7.29302 72.041 8.19537C71.7363 9.08599 71.4551 10.0411 71.1973 11.0606C71.3496 10.8262 71.5312 10.586 71.7422 10.3399C71.9531 10.0938 72.1816 9.87115 72.4277 9.67193C72.6855 9.46099 72.9551 9.29107 73.2363 9.16216C73.5176 9.02154 73.8164 8.95123 74.1328 8.95123C74.2969 8.95123 74.4492 8.98052 74.5898 9.03912C74.7422 9.08599 74.8711 9.17388 74.9766 9.30279C75.0937 9.41998 75.1816 9.58404 75.2402 9.79498C75.2988 9.99419 75.3223 10.2461 75.3105 10.5508C75.3105 10.7383 75.2871 10.9317 75.2402 11.1309C75.2051 11.3301 75.1523 11.5528 75.082 11.7989C75.0117 12.0333 74.918 12.2969 74.8008 12.5899C74.6953 12.8829 74.5664 13.2227 74.4141 13.6094C74.3086 13.879 74.2266 14.1075 74.168 14.295C74.1094 14.4825 74.1211 14.6465 74.2031 14.7872C74.3086 14.9747 74.5137 15.0215 74.8184 14.9278C75.1348 14.8223 75.6035 14.5176 76.2246 14.0137C76.3652 13.8965 76.5234 13.7501 76.6992 13.5743C76.875 13.3985 77.0449 13.2227 77.209 13.0469C77.373 12.8594 77.5254 12.6836 77.666 12.5196C77.8066 12.3555 77.9238 12.2266 78.0176 12.1329Z" fill="#AC908F"/>
<path d="M85.2949 12.3438C84.9434 12.8594 84.5449 13.3633 84.0996 13.8555C83.6543 14.336 83.1797 14.7696 82.6758 15.1563C82.1836 15.5313 81.6738 15.836 81.1465 16.0704C80.6309 16.3047 80.1269 16.4219 79.6348 16.4219C79.3769 16.4219 79.0957 16.3575 78.791 16.2286C78.498 16.1114 78.2285 15.9239 77.9824 15.6661C77.7363 15.4083 77.5371 15.0743 77.3848 14.6641C77.2441 14.254 77.2031 13.7559 77.2617 13.17C77.3086 12.6895 77.4551 12.1856 77.7012 11.6583C77.959 11.1192 78.2695 10.627 78.6328 10.1817C79.0078 9.73638 79.4238 9.36724 79.8809 9.07427C80.3496 8.7813 80.8184 8.63482 81.2871 8.63482C81.7324 8.63482 82.0547 8.74615 82.2539 8.9688C82.4531 9.19146 82.541 9.46685 82.5176 9.79498C82.4824 10.1583 82.3769 10.4922 82.2012 10.7969C82.0371 11.1016 81.8379 11.377 81.6035 11.6231C81.3691 11.8692 81.1172 12.0919 80.8476 12.2911C80.5898 12.4903 80.3437 12.6719 80.1094 12.836C79.8516 13.0118 79.6055 13.1817 79.3711 13.3458C79.1367 13.4981 78.9316 13.6387 78.7559 13.7676C78.7676 14.0606 78.8203 14.3067 78.9141 14.5059C79.0078 14.7051 79.125 14.8692 79.2656 14.9981C79.4062 15.1153 79.5644 15.2032 79.7402 15.2618C79.9277 15.3086 80.1152 15.3321 80.3027 15.3321C80.7012 15.3321 81.1172 15.209 81.5508 14.9629C81.9844 14.7051 82.4062 14.4004 82.8164 14.0489C83.2383 13.6856 83.625 13.3106 83.9766 12.9239C84.3398 12.5372 84.6387 12.2032 84.873 11.9219C84.9551 11.8282 85.0371 11.7754 85.1191 11.7637C85.2129 11.7403 85.2832 11.752 85.3301 11.7989C85.3887 11.834 85.418 11.9044 85.418 12.0098C85.418 12.1036 85.3769 12.2149 85.2949 12.3438ZM80.7949 9.63677C80.6543 9.63677 80.4844 9.70708 80.2851 9.84771C80.0976 9.98833 79.9101 10.1934 79.7226 10.4629C79.5351 10.7208 79.3594 11.043 79.1953 11.4297C79.0312 11.8047 78.9082 12.2383 78.8262 12.7305C78.9668 12.6251 79.1191 12.5196 79.2832 12.4141C79.4473 12.2969 79.6113 12.1739 79.7754 12.045C80.2793 11.6583 80.6309 11.3184 80.8301 11.0254C81.0293 10.7325 81.1406 10.4805 81.1641 10.2696C81.1875 10.0469 81.1641 9.88873 81.0937 9.79498C81.0234 9.68951 80.9238 9.63677 80.7949 9.63677Z" fill="#AC908F"/>
<path d="M89.25 16.4395C88.9805 16.4395 88.7461 16.3868 88.5469 16.2813C88.3594 16.1876 88.207 16.0586 88.0898 15.8946C87.9726 15.7305 87.8965 15.543 87.8613 15.3321C87.8262 15.1094 87.8379 14.8751 87.8965 14.629C87.9316 14.4649 87.9902 14.2481 88.0723 13.9786C88.1543 13.6973 88.2363 13.3985 88.3184 13.0821C88.4121 12.754 88.4941 12.4317 88.5644 12.1153C88.6465 11.7872 88.6992 11.4942 88.7226 11.2364C88.7461 10.9669 88.7344 10.7501 88.6875 10.586C88.6406 10.4102 88.541 10.3223 88.3887 10.3223C88.2012 10.3223 88.0078 10.3868 87.8086 10.5157C87.6094 10.6329 87.4043 10.7969 87.1934 11.0079C86.9941 11.2188 86.7891 11.4649 86.5781 11.7461C86.3789 12.0157 86.1797 12.2969 85.9805 12.5899C85.875 12.9883 85.7871 13.3399 85.7168 13.6446C85.6465 13.9376 85.582 14.2071 85.5234 14.4532C85.4766 14.6876 85.4297 14.8985 85.3828 15.086C85.3359 15.2618 85.2949 15.4317 85.2598 15.5958C85.2246 15.7129 85.1191 15.8301 84.9434 15.9473C84.7676 16.0528 84.5801 16.1407 84.3809 16.211C84.1816 16.2813 84.0117 16.3165 83.8711 16.3165C83.7187 16.3165 83.6543 16.2637 83.6777 16.1583C83.6894 16.0879 83.7305 15.9297 83.8008 15.6836C83.8594 15.4376 83.9355 15.1504 84.0293 14.8223C84.1113 14.4825 84.1992 14.1251 84.293 13.7501C84.3867 13.3751 84.4746 13.0176 84.5566 12.6778C84.6152 12.4083 84.6797 12.1094 84.75 11.7813C84.8086 11.5001 84.8789 11.1719 84.9609 10.7969C85.0547 10.4219 85.1601 10.0118 85.2773 9.56646C85.3594 9.49615 85.4414 9.44341 85.5234 9.40826C85.6172 9.36138 85.7109 9.32623 85.8047 9.30279C85.8984 9.26763 85.998 9.24419 86.1035 9.23248C86.1973 9.23248 86.291 9.23833 86.3848 9.25005C86.4668 9.26177 86.5488 9.28521 86.6309 9.32037C86.7246 9.3438 86.8066 9.38482 86.8769 9.44341C86.8418 9.52544 86.8008 9.64263 86.7539 9.79498C86.707 9.9356 86.6601 10.0879 86.6133 10.252C86.5664 10.4395 86.5078 10.6329 86.4375 10.8321C86.5898 10.6211 86.7598 10.4102 86.9473 10.1993C87.1465 9.97662 87.3574 9.7774 87.5801 9.60162C87.8144 9.42583 88.0605 9.28521 88.3184 9.17974C88.5762 9.06255 88.8398 9.00396 89.1094 9.00396C89.332 9.00396 89.5312 9.06841 89.707 9.19732C89.8828 9.32623 90.0176 9.50787 90.1113 9.74224C90.2168 9.9649 90.2754 10.2344 90.2871 10.5508C90.3105 10.8672 90.2695 11.2129 90.1641 11.5879L89.9707 12.3614C89.9121 12.6075 89.8359 12.9004 89.7422 13.2403C89.6601 13.5684 89.5547 13.9317 89.4258 14.3301C89.3555 14.5879 89.3262 14.8106 89.3379 14.9981C89.3613 15.1856 89.4785 15.2794 89.6894 15.2794C89.9004 15.2794 90.1641 15.1504 90.4805 14.8926C90.8086 14.6348 91.1367 14.3243 91.4648 13.961C91.793 13.5977 92.1035 13.2286 92.3965 12.8536C92.6894 12.4669 92.9121 12.1563 93.0644 11.9219C93.1699 11.7696 93.2695 11.67 93.3633 11.6231C93.457 11.5762 93.5273 11.5704 93.5742 11.6055C93.6328 11.6407 93.6621 11.7227 93.6621 11.8516C93.6621 11.9688 93.6152 12.1211 93.5215 12.3086C93.4394 12.4727 93.3105 12.6895 93.1348 12.959C92.9707 13.2286 92.7715 13.5157 92.5371 13.8204C92.3027 14.1251 92.0508 14.4356 91.7812 14.752C91.5117 15.0567 91.2305 15.3379 90.9375 15.5958C90.6445 15.8419 90.3516 16.0411 90.0586 16.1934C89.7773 16.3575 89.5078 16.4395 89.25 16.4395Z" fill="#AC908F"/>
</svg>
