<svg width="394" height="103" viewBox="0 0 394 103" fill="none" xmlns="http://www.w3.org/2000/svg">
<path d="M10.6485 89.192C7.74717 89.192 5.31517 88.4667 3.3525 87.016C1.47517 85.5654 0.536499 83.2614 0.536499 80.104C0.536499 77.1174 1.3045 74.1734 2.8405 71.272C4.46183 68.3707 6.25383 65.9387 8.2165 63.976C8.4725 63.72 8.7285 63.592 8.9845 63.592C9.66717 63.592 10.0085 63.9334 10.0085 64.616C10.0085 64.872 9.4965 65.5547 8.4725 66.664C7.53383 67.7734 6.59517 69.1814 5.6565 70.888C4.71783 72.5947 4.2485 74.5574 4.2485 76.776C4.2485 79.592 5.18717 81.8534 7.0645 83.56C8.94183 85.352 11.2458 86.248 13.9765 86.248C14.4032 86.248 14.8298 86.2054 15.2565 86.12C15.6832 86.12 16.0672 86.0774 16.4085 85.992C18.1152 85.5654 19.7365 85.096 21.2725 84.584C22.8938 84.072 24.4725 83.3894 26.0085 82.536C30.6165 80.0614 34.8405 76.6907 38.6805 72.424C42.6058 68.1574 46.1045 63.464 49.1765 58.344C52.3338 53.1387 55.0645 47.848 57.3685 42.472C59.7578 37.0107 61.7205 31.848 63.2565 26.984C64.5365 23.2294 65.1765 19.432 65.1765 15.592C65.1765 13.6294 64.8778 11.6667 64.2805 9.70403C63.7685 7.74137 62.8725 6.12003 61.5925 4.84003C60.3125 3.4747 58.4778 2.79204 56.0885 2.79204C54.1258 2.79204 52.0778 3.26137 49.9445 4.20004C47.8112 5.05337 45.7632 6.1627 43.8005 7.52804C41.8378 8.80804 40.0885 10.0454 38.5525 11.24C35.3952 13.7147 32.2378 16.7867 29.0805 20.456C26.0085 24.1254 23.4058 28.0934 21.2725 32.36C19.2245 36.5414 18.2005 40.808 18.2005 45.16C18.2005 47.0374 18.6272 48.9147 19.4805 50.792C20.3338 52.584 21.8698 53.48 24.0885 53.48H24.8565C28.2698 52.968 31.4272 51.432 34.3285 48.872C37.2298 46.312 39.6618 43.3254 41.6245 39.912C43.6725 36.4134 45.0805 33.128 45.8485 30.056C46.0192 29.3734 46.1898 28.7334 46.3605 28.136C46.5312 27.4534 46.6165 26.8134 46.6165 26.216C46.6165 26.0454 46.5312 25.704 46.3605 25.192C46.2752 24.68 46.0192 24.424 45.5925 24.424C44.4832 24.424 43.4165 24.9787 42.3925 26.088C41.3685 27.1974 40.6432 27.752 40.2165 27.752C39.4485 27.752 39.0645 27.4107 39.0645 26.728C39.0645 26.5574 39.1925 26.344 39.4485 26.088C40.3872 25.1494 41.4965 24.2534 42.7765 23.4C44.0565 22.4614 45.3365 21.992 46.6165 21.992C47.8112 21.992 48.6218 22.4187 49.0485 23.272C49.5605 24.04 49.8165 24.9787 49.8165 26.088C49.8165 26.6854 49.7738 27.3254 49.6885 28.008C49.6032 28.6054 49.4752 29.2027 49.3045 29.8C48.7072 32.2747 47.5552 35.0054 45.8485 37.992C44.2272 40.8934 42.2218 43.6667 39.8325 46.312C37.5285 48.9574 35.0112 51.1334 32.2805 52.84C29.5498 54.5467 26.7765 55.4 23.9605 55.4C20.8032 55.4 18.4565 54.1627 16.9205 51.688C15.3845 49.2134 14.6165 46.568 14.6165 43.752C14.6165 43.0694 14.6592 42.4294 14.7445 41.832C14.9152 41.1494 15.0432 40.4667 15.1285 39.784C15.8965 35.8587 17.3045 32.0614 19.3525 28.392C21.4858 24.7227 23.9605 21.3094 26.7765 18.152C29.6778 14.9094 32.6218 12.0934 35.6085 9.70403C38.2538 7.5707 41.3258 5.5227 44.8245 3.56004C48.4085 1.51204 51.9498 0.488037 55.4485 0.488037C58.7765 0.488037 61.4218 1.4267 63.3845 3.30403C65.3472 5.09603 66.7552 7.40003 67.6085 10.216C68.4618 13.032 68.8885 15.848 68.8885 18.664C68.8885 21.9067 68.3765 25.1494 67.3525 28.392C65.8165 33.256 63.7258 38.376 61.0805 43.752C58.5205 49.0427 55.5338 54.248 52.1205 59.368C48.7072 64.488 44.9952 69.1814 40.9845 73.448C36.9738 77.6294 32.7498 81.0427 28.3125 83.688C26.3498 84.8827 24.3018 85.864 22.1685 86.632C20.1205 87.4854 17.9872 88.168 15.7685 88.68C14.9152 88.8507 14.0618 88.9787 13.2085 89.064C12.3552 89.1494 11.5018 89.192 10.6485 89.192Z" fill="#FFF6F5"/>
<path d="M78.4155 81.896C78.0742 81.896 77.3062 81.8534 76.1115 81.768C75.0022 81.6827 74.3622 81.4694 74.1915 81.128L73.8075 80.232C73.8075 80.0614 73.9782 79.976 74.3195 79.976C74.6608 79.8907 74.8742 79.848 74.9595 79.848H79.1835C79.9515 79.7627 80.8902 79.592 81.9995 79.336C83.1088 78.9947 84.0902 78.5254 84.9435 77.928C85.7968 77.3307 86.2235 76.5627 86.2235 75.624C86.2235 75.0267 86.0102 74.5147 85.5835 74.088C85.1568 73.6614 84.7302 73.32 84.3035 73.064C82.5968 71.9547 80.7622 70.7174 78.7995 69.352C76.9222 67.9014 75.3435 66.2374 74.0635 64.36C72.7835 62.4827 72.1435 60.392 72.1435 58.088C72.1435 55.784 72.8688 53.48 74.3195 51.176C75.8555 48.7867 77.7755 46.6107 80.0795 44.648C82.4688 42.6 84.9435 40.9787 87.5035 39.784C90.1488 38.5894 92.5808 37.992 94.7995 37.992C96.2502 37.992 97.7862 38.4187 99.4075 39.272C101.114 40.04 101.967 41.2774 101.967 42.984C101.967 43.496 101.754 44.264 101.327 45.288C100.986 46.2267 100.474 46.696 99.7915 46.696C99.6208 46.696 99.4928 46.568 99.4075 46.312C99.4075 45.9707 99.4075 45.7574 99.4075 45.672C99.4075 45.16 99.4502 44.6907 99.5355 44.264C99.6208 43.752 99.6635 43.2827 99.6635 42.856C99.6635 41.32 98.8955 40.552 97.3595 40.552C96.1648 40.552 94.6288 41.0214 92.7515 41.96C90.8742 42.8134 89.0395 43.8374 87.2475 45.032C85.4555 46.1414 84.0902 47.1227 83.1515 47.976C82.2128 48.9147 81.1462 50.0667 79.9515 51.432C78.7568 52.712 77.7328 54.12 76.8795 55.656C76.0262 57.1067 75.5995 58.5574 75.5995 60.008C75.5995 61.8 76.3248 63.464 77.7755 65C79.2262 66.536 80.8902 67.944 82.7675 69.224C84.7302 70.504 86.4368 71.7414 87.8875 72.936C89.3382 74.1307 90.0635 75.368 90.0635 76.648C90.0635 78.0134 89.2955 79.08 87.7595 79.848C86.3088 80.616 84.6448 81.128 82.7675 81.384C80.9755 81.7254 79.5248 81.896 78.4155 81.896Z" fill="#FFF6F5"/>
<path d="M118.629 83.048C116.837 83.048 115.77 82.1947 115.428 80.488C115.087 78.7814 114.917 77.2454 114.917 75.88C114.917 73.4907 115.002 71.144 115.173 68.84C115.429 66.4507 115.642 64.0614 115.812 61.672C115.471 62.8667 114.959 64.5307 114.276 66.664C113.679 68.7974 112.911 70.9734 111.973 73.192C111.034 75.4107 109.967 77.288 108.772 78.824C107.578 80.36 106.212 81.128 104.676 81.128C103.652 81.128 102.884 80.7014 102.372 79.848C101.86 78.9947 101.519 78.0134 101.348 76.904C101.263 75.7094 101.22 74.7707 101.22 74.088C101.22 70.0774 102.031 65.9387 103.652 61.672C105.274 57.4054 107.194 53.6934 109.412 50.536C109.412 49.256 109.882 47.9334 110.82 46.568C111.844 45.2027 113.039 43.9654 114.405 42.856C115.77 41.7467 116.965 40.9787 117.989 40.552C118.501 40.3814 118.97 40.296 119.396 40.296C119.823 40.296 120.122 40.4667 120.293 40.808C120.549 41.1494 120.676 41.5334 120.676 41.96C120.676 42.3014 120.634 42.6854 120.549 43.112C120.463 43.4534 120.292 43.752 120.036 44.008C119.268 44.776 118.5 45.4587 117.732 46.056C117.05 46.6534 116.325 47.4214 115.557 48.36C113.85 50.408 112.058 52.8827 110.18 55.784C108.388 58.6854 106.853 61.7147 105.573 64.872C104.293 67.944 103.652 70.8454 103.652 73.576C103.652 73.9174 103.695 74.6 103.781 75.624C103.866 76.5627 104.036 77.4587 104.292 78.312C104.634 79.08 105.103 79.464 105.701 79.464C106.469 79.464 107.151 79.0374 107.748 78.184C108.431 77.2454 108.943 76.4774 109.285 75.88C110.223 74.1734 111.119 72.04 111.973 69.48C112.826 66.92 113.594 64.3174 114.276 61.672C114.959 59.0267 115.471 56.7654 115.812 54.888C115.983 54.2907 116.111 53.736 116.197 53.224C116.282 52.6267 116.367 52.0294 116.452 51.432C116.538 51.176 116.58 50.8774 116.58 50.536C116.58 50.1094 116.623 49.7254 116.708 49.384C116.879 48.872 117.263 48.616 117.86 48.616C118.287 48.616 118.671 48.744 119.012 49C119.354 49.256 119.524 49.5974 119.524 50.024V50.28C119.524 53.1814 119.311 56.04 118.884 58.856C118.543 61.672 118.372 64.5734 118.372 67.56C118.372 69.2667 118.415 71.0587 118.501 72.936C118.586 74.8134 118.799 76.648 119.141 78.44C119.141 78.696 119.226 79.08 119.396 79.592C119.567 80.104 119.866 80.36 120.293 80.36C120.549 80.36 120.805 80.2747 121.061 80.104C121.402 79.848 121.615 79.6774 121.701 79.592C123.834 77.8 125.668 75.496 127.204 72.68C128.74 69.7787 129.978 67.048 130.917 64.488C131.173 64.0614 131.386 63.848 131.557 63.848C131.813 63.848 131.941 64.0614 131.941 64.488V65C131.514 66.4507 130.703 68.4134 129.508 70.888C128.314 73.2774 126.991 75.5814 125.54 77.8C124.175 79.9334 122.853 81.384 121.573 82.152C120.719 82.7494 119.738 83.048 118.629 83.048Z" fill="#FFF6F5"/>
<path d="M135.572 102.76C133.951 102.76 132.458 102.333 131.092 101.48C129.812 100.712 129.173 99.432 129.173 97.64C129.173 95.592 129.941 93.6294 131.477 91.752C133.098 89.8747 134.634 88.296 136.085 87.016C138.218 85.224 140.735 83.2614 143.637 81.128C146.538 78.9947 149.311 77.6294 151.956 77.032C151.871 73.2774 151.061 69.5654 149.525 65.896C148.159 67.7734 146.709 69.6507 145.173 71.528C143.722 73.32 142.101 75.0267 140.309 76.648C139.541 77.3307 138.303 78.2267 136.596 79.336C134.975 80.4454 133.652 81 132.628 81C131.775 81 131.348 80.488 131.348 79.464C131.348 78.6107 131.562 77.672 131.988 76.648C132.756 74.6854 133.524 72.7227 134.292 70.76C135.06 68.712 135.828 66.7494 136.596 64.872C137.279 63.336 137.962 61.5867 138.645 59.624C139.413 57.6614 139.796 55.8694 139.796 54.248C139.796 53.992 139.754 53.6507 139.669 53.224C139.583 52.712 139.327 52.456 138.9 52.456C138.388 52.456 137.748 52.7547 136.98 53.352C136.298 53.9494 135.743 54.248 135.316 54.248C135.06 54.248 134.932 54.1627 134.932 53.992C134.932 53.48 135.317 53.0107 136.085 52.584C136.853 52.072 137.706 51.688 138.645 51.432C139.583 51.0907 140.266 50.92 140.693 50.92C141.887 50.92 142.783 51.304 143.38 52.072C143.978 52.7547 144.277 53.6934 144.277 54.888C144.277 56.3387 143.764 58.2587 142.74 60.648C141.716 63.0374 140.522 65.512 139.156 68.072C137.791 70.5467 136.596 72.7227 135.572 74.6C134.548 76.392 134.036 77.5014 134.036 77.928C134.036 78.184 134.122 78.312 134.292 78.312C134.804 78.312 135.658 77.928 136.852 77.16C138.047 76.392 138.858 75.8374 139.285 75.496C143.039 72.2534 146.325 68.584 149.141 64.488C148.97 64.1467 148.629 63.5494 148.117 62.696C147.69 61.8427 147.477 61.2454 147.477 60.904C147.477 60.392 147.903 59.8374 148.757 59.24C149.61 58.6427 150.506 58.1734 151.445 57.832C152.469 57.4054 153.151 57.192 153.492 57.192C154.09 57.192 154.389 57.448 154.389 57.96C154.389 58.728 153.876 59.8374 152.852 61.288C151.828 62.7387 151.103 63.8054 150.676 64.488C151.615 66.3654 152.426 68.328 153.109 70.376C153.791 72.424 154.303 74.5147 154.645 76.648C155.242 76.648 156.18 76.904 157.46 77.416C158.74 77.928 159.38 78.5254 159.38 79.208C159.38 79.464 159.21 79.592 158.868 79.592C158.612 79.592 158.186 79.336 157.589 78.824C156.991 78.312 156.095 78.0987 154.9 78.184C154.986 78.8667 155.029 79.5494 155.029 80.232C155.114 80.9147 155.156 81.64 155.156 82.408C155.156 85.5654 154.602 88.424 153.492 90.984C152.383 93.6294 150.548 95.9334 147.988 97.896C146.367 99.176 144.447 100.285 142.229 101.224C140.01 102.248 137.791 102.76 135.572 102.76ZM150.036 63.208C150.463 62.5254 150.847 61.8 151.189 61.032C151.615 60.264 151.999 59.496 152.34 58.728C151.658 59.0694 151.018 59.4534 150.421 59.88C149.909 60.2214 149.311 60.6054 148.628 61.032C148.97 61.3734 149.226 61.7147 149.396 62.056C149.567 62.3974 149.78 62.7814 150.036 63.208ZM135.956 101.736C137.748 101.736 139.455 101.139 141.077 99.944C142.698 98.8347 144.063 97.6827 145.173 96.488C147.477 94.0134 149.183 91.24 150.292 88.168C151.402 85.1814 151.999 82.024 152.085 78.696C150.463 79.208 148.501 80.104 146.197 81.384C143.893 82.664 141.631 84.2 139.413 85.992C137.194 87.784 135.317 89.6614 133.781 91.624C132.33 93.672 131.604 95.6347 131.604 97.512C131.604 98.792 131.989 99.816 132.757 100.584C133.61 101.352 134.676 101.736 135.956 101.736Z" fill="#FFF6F5"/>
<path d="M159.742 44.008C159.742 43.8374 159.87 43.4534 160.126 42.856C160.467 42.2587 160.808 41.5334 161.15 40.68C161.832 39.3147 162.429 37.9067 162.941 36.456C163.539 34.92 163.837 33.512 163.837 32.232C163.837 31.5494 163.71 30.952 163.454 30.44C163.283 30.184 163.453 29.8 163.965 29.288C164.477 28.776 165.075 28.3067 165.758 27.88C166.526 27.4534 167.123 27.2827 167.549 27.368C168.829 27.368 169.469 27.7094 169.469 28.392C169.469 28.904 169.256 29.5014 168.829 30.184C168.403 30.7814 167.976 31.4214 167.549 32.104C166.611 33.7254 165.501 35.56 164.221 37.608C163.027 39.656 161.96 41.3627 161.021 42.728C160.168 44.008 159.742 44.4347 159.742 44.008Z" fill="#FFF6F5"/>
<path d="M178.165 81.896C177.824 81.896 177.056 81.8534 175.861 81.768C174.752 81.6827 174.112 81.4694 173.941 81.128L173.557 80.232C173.557 80.0614 173.728 79.976 174.07 79.976C174.411 79.8907 174.624 79.848 174.71 79.848H178.934C179.702 79.7627 180.64 79.592 181.749 79.336C182.859 78.9947 183.84 78.5254 184.693 77.928C185.547 77.3307 185.973 76.5627 185.973 75.624C185.973 75.0267 185.76 74.5147 185.333 74.088C184.907 73.6614 184.48 73.32 184.053 73.064C182.347 71.9547 180.512 70.7174 178.549 69.352C176.672 67.9014 175.094 66.2374 173.814 64.36C172.534 62.4827 171.893 60.392 171.893 58.088C171.893 55.784 172.619 53.48 174.07 51.176C175.606 48.7867 177.525 46.6107 179.829 44.648C182.219 42.6 184.693 40.9787 187.253 39.784C189.899 38.5894 192.331 37.992 194.549 37.992C196 37.992 197.536 38.4187 199.158 39.272C200.864 40.04 201.717 41.2774 201.717 42.984C201.717 43.496 201.504 44.264 201.077 45.288C200.736 46.2267 200.224 46.696 199.542 46.696C199.371 46.696 199.243 46.568 199.158 46.312C199.158 45.9707 199.158 45.7574 199.158 45.672C199.158 45.16 199.2 44.6907 199.286 44.264C199.371 43.752 199.413 43.2827 199.413 42.856C199.413 41.32 198.645 40.552 197.109 40.552C195.915 40.552 194.379 41.0214 192.501 41.96C190.624 42.8134 188.789 43.8374 186.997 45.032C185.205 46.1414 183.84 47.1227 182.902 47.976C181.963 48.9147 180.896 50.0667 179.702 51.432C178.507 52.712 177.483 54.12 176.63 55.656C175.776 57.1067 175.35 58.5574 175.35 60.008C175.35 61.8 176.075 63.464 177.525 65C178.976 66.536 180.64 67.944 182.518 69.224C184.48 70.504 186.187 71.7414 187.637 72.936C189.088 74.1307 189.814 75.368 189.814 76.648C189.814 78.0134 189.046 79.08 187.51 79.848C186.059 80.616 184.395 81.128 182.518 81.384C180.726 81.7254 179.275 81.896 178.165 81.896Z" fill="#FFF6F5"/>
<path d="M249.25 68.5625C248.292 70.1459 247.188 71.7917 245.938 73.5C244.729 75.1667 243.438 76.7084 242.062 78.125C240.688 79.5 239.271 80.6459 237.812 81.5625C236.354 82.4792 234.896 82.9375 233.438 82.9375C231.979 82.9375 230.917 82.4375 230.25 81.4375C229.625 80.4792 229.333 79.3959 229.375 78.1875C229.375 77.6459 229.417 77.1667 229.5 76.75C229.625 76.3334 229.75 75.9584 229.875 75.625C230 75.2917 230.125 74.9584 230.25 74.625C230.417 74.25 230.562 73.8334 230.688 73.375C230.854 72.8334 230.854 72.3542 230.688 71.9375C230.562 71.4792 230.396 71.0834 230.188 70.75C229.812 71.1667 229.375 71.5417 228.875 71.875C228.417 72.1667 227.833 72.3125 227.125 72.3125C226.625 72.3125 226.167 72.0834 225.75 71.625C225.333 71.125 225.125 70.5209 225.125 69.8125C225.125 69.2292 225.25 68.75 225.5 68.375C225.792 68 226.104 67.7084 226.438 67.5C226.812 67.2917 227.188 67.1459 227.562 67.0625C227.938 66.9792 228.25 66.9375 228.5 66.9375C228.625 66.9375 228.875 66.9584 229.25 67C229.667 67.0417 230.104 67.1042 230.562 67.1875C232.062 65.9792 233.125 64.8959 233.75 63.9375C234.417 62.9375 234.479 62.0417 233.938 61.25C233.604 60.7084 233.188 60.4375 232.688 60.4375C232.188 60.3959 231.667 60.5209 231.125 60.8125C230.583 61.0625 230.042 61.3959 229.5 61.8125C229 62.2292 228.542 62.625 228.125 63C227.292 63.8334 226.354 64.8334 225.312 66C224.312 67.125 223.479 68.0625 222.812 68.8125C222.521 70.0625 222.229 71.375 221.938 72.75C221.688 73.9584 221.396 75.3334 221.062 76.875C220.771 78.375 220.458 79.9375 220.125 81.5625C219.875 81.6875 219.604 81.7709 219.312 81.8125C219.062 81.8959 218.833 81.9584 218.625 82C218.375 82.0417 218.125 82.0625 217.875 82.0625C217.542 82.0625 217.229 82.0417 216.938 82C216.646 82 216.417 81.8959 216.25 81.6875C216.042 81.5209 215.938 81.2292 215.938 80.8125C215.896 80.3959 216 79.8125 216.25 79.0625C216.583 77.9792 217 76.5417 217.5 74.75C218 72.9167 218.521 70.9167 219.062 68.75C219.604 66.5834 220.146 64.3334 220.688 62C221.271 59.625 221.812 57.375 222.312 55.25C222.812 53.0834 223.229 51.1459 223.562 49.4375C223.938 47.6875 224.208 46.3125 224.375 45.3125C224.5 44.2292 224.625 43.1875 224.75 42.1875C224.833 41.3542 224.875 40.5417 224.875 39.75C224.917 38.9167 224.875 38.2917 224.75 37.875C224.958 37.6667 225.25 37.4792 225.625 37.3125C226 37.1459 226.417 37.0209 226.875 36.9375C227.333 36.8125 227.875 36.7084 228.5 36.625C229.208 36.5417 229.792 36.5209 230.25 36.5625C230.75 36.6042 231.104 36.8125 231.312 37.1875C231.562 37.6042 231.604 38.3125 231.438 39.3125C231.312 40.2709 231.021 41.625 230.562 43.375C229.979 45.625 229.375 47.6875 228.75 49.5625C228.167 51.3959 227.583 53.125 227 54.75C226.458 56.375 225.917 57.9584 225.375 59.5C224.875 61 224.417 62.5417 224 64.125C224.833 62.9167 225.875 61.6459 227.125 60.3125C228.375 58.9375 229.792 57.8125 231.375 56.9375C233.042 56.0625 234.417 55.625 235.5 55.625C236.833 55.625 237.792 56.0834 238.375 57C238.958 57.875 239.229 58.9167 239.188 60.125C239.146 61.0834 238.896 61.9792 238.438 62.8125C238.021 63.6042 237.5 64.3542 236.875 65.0625C236.25 65.7292 235.583 66.3125 234.875 66.8125C234.167 67.3125 233.562 67.7292 233.062 68.0625C233.646 68.3959 234.146 68.8542 234.562 69.4375C235.021 69.9792 235.229 70.6667 235.188 71.5C235.146 72.625 234.917 73.625 234.5 74.5C234.125 75.3334 233.938 76.1042 233.938 76.8125C233.979 77.3542 234.083 77.75 234.25 78C234.458 78.25 234.875 78.375 235.5 78.375C236.625 78.375 237.792 77.8959 239 76.9375C240.25 75.9792 241.417 74.875 242.5 73.625C243.583 72.375 244.583 71.1459 245.5 69.9375C246.417 68.6875 247.125 67.7709 247.625 67.1875C248.333 66.4375 248.917 66.25 249.375 66.625C249.875 66.9584 249.833 67.6042 249.25 68.5625Z" fill="#FFF6F5"/>
<path d="M259.125 44.1875C259 44.6459 258.75 45.1042 258.375 45.5625C258.042 45.9792 257.646 46.3334 257.188 46.625C256.771 46.875 256.333 47.0417 255.875 47.125C255.417 47.2084 255.042 47.125 254.75 46.875C253.875 46.2084 253.417 45.5 253.375 44.75C253.333 43.9584 253.521 43.2292 253.938 42.5625C254.354 41.8542 254.875 41.2709 255.5 40.8125C256.125 40.3125 256.667 40.0209 257.125 39.9375C257.583 39.8542 257.958 39.9584 258.25 40.25C258.583 40.5 258.833 40.8542 259 41.3125C259.167 41.7292 259.25 42.2084 259.25 42.75C259.292 43.2917 259.25 43.7709 259.125 44.1875ZM250.5 57.5C250.708 57.25 251.104 57.0417 251.688 56.875C252.271 56.7084 252.875 56.5834 253.5 56.5C254.125 56.375 254.688 56.3125 255.188 56.3125C255.729 56.2709 256.042 56.2709 256.125 56.3125C256.167 56.3542 256.062 56.7917 255.812 57.625C255.562 58.4584 255.25 59.4375 254.875 60.5625C254.5 61.6875 254.104 62.8542 253.688 64.0625C253.271 65.2292 252.958 66.1875 252.75 66.9375C252.542 67.6875 252.292 68.5417 252 69.5C251.708 70.4167 251.438 71.3334 251.188 72.25C250.979 73.125 250.833 73.9584 250.75 74.75C250.667 75.5417 250.729 76.1459 250.938 76.5625C251.146 77.0625 251.375 77.4167 251.625 77.625C251.875 77.7917 252.146 77.875 252.438 77.875C253.271 77.875 254.312 77.4167 255.562 76.5C256.854 75.5834 258.146 74.5 259.438 73.25C260.771 71.9584 262 70.6667 263.125 69.375C264.25 68.0417 265.083 66.9792 265.625 66.1875C265.958 65.7709 266.292 65.5 266.625 65.375C267 65.25 267.292 65.2709 267.5 65.4375C267.75 65.6042 267.875 65.875 267.875 66.25C267.917 66.625 267.792 67.0625 267.5 67.5625C266.833 68.7292 265.854 70.125 264.562 71.75C263.271 73.3334 261.896 74.875 260.438 76.375C258.979 77.8334 257.542 79.0834 256.125 80.125C254.75 81.1667 253.625 81.7084 252.75 81.75C252.042 81.7917 251.333 81.6667 250.625 81.375C249.958 81.125 249.333 80.7709 248.75 80.3125C248.208 79.8125 247.75 79.25 247.375 78.625C247 77.9584 246.792 77.2709 246.75 76.5625C246.625 75.5209 246.625 74.1042 246.75 72.3125C246.875 70.4792 247.104 68.625 247.438 66.75C247.771 64.8334 248.188 63.0209 248.688 61.3125C249.229 59.6042 249.833 58.3334 250.5 57.5Z" fill="#FFF6F5"/>
<path d="M286 65.1875C286.167 64.9375 286.375 64.7917 286.625 64.75C286.917 64.6667 287.146 64.6875 287.312 64.8125C287.479 64.9375 287.562 65.1459 287.562 65.4375C287.604 65.7292 287.5 66.125 287.25 66.625C286.417 68.2084 285.312 69.9167 283.938 71.75C282.604 73.5834 281.188 75.3125 279.688 76.9375C278.188 78.5209 276.729 79.8334 275.312 80.875C273.896 81.9167 272.708 82.4375 271.75 82.4375C270.375 82.4375 269.229 82.1667 268.312 81.625C267.396 81.0834 266.667 80.4167 266.125 79.625C265.625 78.8334 265.271 77.9792 265.062 77.0625C264.854 76.1042 264.792 75.2292 264.875 74.4375C264.917 73.7709 265.062 72.5834 265.312 70.875C265.562 69.125 265.896 67.125 266.312 64.875C266.729 62.5834 267.188 60.1459 267.688 57.5625C268.229 54.9375 268.792 52.4167 269.375 50C268.667 50.0834 267.958 50.1667 267.25 50.25C266.542 50.3334 265.896 50.375 265.312 50.375C263.979 50.375 262.729 50.2292 261.562 49.9375C260.354 49.6042 259.458 49.2917 258.875 49C258.542 48.8334 258.396 48.6042 258.438 48.3125C258.479 47.9792 258.604 47.6667 258.812 47.375C259.021 47.0417 259.292 46.7709 259.625 46.5625C259.917 46.3125 260.188 46.1875 260.438 46.1875C261.229 46.2709 262.083 46.3542 263 46.4375C263.917 46.4792 264.917 46.4792 266 46.4375C266.792 46.3959 267.542 46.3334 268.25 46.25C269 46.1667 269.729 46.0625 270.438 45.9375C270.979 43.9375 271.5 42.2084 272 40.75C272.542 39.25 273.021 38.2084 273.438 37.625C273.562 37.4167 273.833 37.25 274.25 37.125C274.708 36.9584 275.188 36.8542 275.688 36.8125C276.188 36.7292 276.667 36.7292 277.125 36.8125C277.583 36.8542 277.917 37 278.125 37.25C278.333 37.5834 278.417 38.4375 278.375 39.8125C278.333 41.1875 278.104 42.9375 277.688 45.0625C279.438 45.0625 280.979 45.1667 282.312 45.375C283.688 45.5417 284.854 45.75 285.812 46C286.771 46.2084 287.542 46.4375 288.125 46.6875C288.708 46.8959 289.146 47.0417 289.438 47.125C289.729 47.2084 289.875 47.4167 289.875 47.75C289.917 48.0834 289.854 48.4375 289.688 48.8125C289.562 49.1459 289.333 49.4375 289 49.6875C288.667 49.9375 288.292 50.0209 287.875 49.9375C287.458 49.8959 286.979 49.8125 286.438 49.6875C285.938 49.5625 285.312 49.4584 284.562 49.375C283.854 49.2917 283 49.2084 282 49.125C281 49.0417 279.833 49 278.5 49C278.25 49 277.958 49.0209 277.625 49.0625C277.333 49.0625 277.021 49.0625 276.688 49.0625C276.521 49.7292 276.354 50.3959 276.188 51.0625C276.062 51.6875 275.875 52.3542 275.625 53.0625C275.083 54.7292 274.458 56.5417 273.75 58.5C273.125 60.2084 272.375 62.1667 271.5 64.375C270.625 66.5834 269.646 68.9375 268.562 71.4375C268.312 73.2292 268.333 74.6042 268.625 75.5625C268.958 76.4792 269.354 77.1459 269.812 77.5625C270.354 78.0209 271.021 78.2709 271.812 78.3125C272.438 78.3959 273.188 78.1875 274.062 77.6875C274.979 77.1459 275.917 76.4375 276.875 75.5625C277.833 74.6875 278.792 73.7292 279.75 72.6875C280.75 71.6459 281.667 70.625 282.5 69.625C283.333 68.625 284.062 67.7292 284.688 66.9375C285.312 66.1042 285.75 65.5209 286 65.1875Z" fill="#FFF6F5"/>
<path d="M292.875 78.875C294.167 78.875 295.583 78.375 297.125 77.375C298.708 76.3334 300.229 75.125 301.688 73.75C303.188 72.375 304.542 70.9792 305.75 69.5625C307 68.1042 307.938 66.9375 308.562 66.0625C308.938 65.5209 309.292 65.2084 309.625 65.125C309.958 65 310.208 65.0417 310.375 65.25C310.542 65.4584 310.604 65.7917 310.562 66.25C310.521 66.6667 310.333 67.1459 310 67.6875C309.708 68.1875 309.208 68.9167 308.5 69.875C307.833 70.7917 307.021 71.8125 306.062 72.9375C305.146 74.0209 304.083 75.1459 302.875 76.3125C301.708 77.4375 300.479 78.4792 299.188 79.4375C297.896 80.3542 296.562 81.1042 295.188 81.6875C293.812 82.3125 292.458 82.625 291.125 82.625C289.292 82.625 287.75 82.2709 286.5 81.5625C285.292 80.8959 284.312 80.0209 283.562 78.9375C282.854 77.8542 282.354 76.6667 282.062 75.375C281.771 74.0417 281.625 72.7292 281.625 71.4375C281.625 70.1459 281.917 68.5417 282.5 66.625C283.083 64.7084 283.938 62.875 285.062 61.125C286.229 59.3334 287.688 57.8125 289.438 56.5625C291.188 55.2709 293.25 54.625 295.625 54.625C296.958 54.625 298.083 55.0834 299 56C299.958 56.9167 300.417 58.1667 300.375 59.75C300.375 60.5 300.25 61.25 300 62C299.75 62.7084 299.417 63.3542 299 63.9375C298.583 64.4792 298.083 64.9167 297.5 65.25C296.958 65.5834 296.354 65.75 295.688 65.75C295.146 65.75 294.729 65.5625 294.438 65.1875C294.188 64.7709 294.021 64.3125 293.938 63.8125C293.896 63.2709 293.896 62.75 293.938 62.25C294.021 61.75 294.104 61.4167 294.188 61.25C294.396 60.9584 294.625 60.75 294.875 60.625C295.125 60.5 295.417 60.3542 295.75 60.1875C296 60.0625 296.188 59.875 296.312 59.625C296.479 59.375 296.562 59.1042 296.562 58.8125C296.562 58.5209 296.479 58.2709 296.312 58.0625C296.146 57.8542 295.875 57.75 295.5 57.75C295.125 57.75 294.438 58.0625 293.438 58.6875C292.479 59.2709 291.479 60.1667 290.438 61.375C289.438 62.5417 288.542 64.0209 287.75 65.8125C286.958 67.6042 286.542 69.6875 286.5 72.0625C286.458 73.4375 286.646 74.5625 287.062 75.4375C287.479 76.3125 288 77 288.625 77.5C289.25 78 289.938 78.3542 290.688 78.5625C291.438 78.7709 292.167 78.875 292.875 78.875Z" fill="#FFF6F5"/>
<path d="M337.75 67.25C338.042 66.9167 338.333 66.75 338.625 66.75C338.958 66.7084 339.208 66.7917 339.375 67C339.583 67.1667 339.667 67.4375 339.625 67.8125C339.625 68.1875 339.458 68.6042 339.125 69.0625C338.333 70.1459 337.417 71.2709 336.375 72.4375C335.333 73.5625 334.208 74.6667 333 75.75C331.833 76.8334 330.646 77.8542 329.438 78.8125C328.229 79.7709 327.062 80.5625 325.938 81.1875C324.688 81.8959 323.625 82.25 322.75 82.25C321.917 82.25 321.083 81.7084 320.25 80.625C319.5 79.6667 319.125 78.6459 319.125 77.5625C319.167 76.4375 319.417 75.0417 319.875 73.375C320.167 72.3334 320.562 71.1042 321.062 69.6875C321.604 68.2292 322.021 66.8334 322.312 65.5C322.646 64.1667 322.75 63.0417 322.625 62.125C322.5 61.1667 321.958 60.6875 321 60.6875C320.333 60.6875 319.604 60.9167 318.812 61.375C318.062 61.8334 317.292 62.4375 316.5 63.1875C315.75 63.8959 315.021 64.7084 314.312 65.625C313.604 66.5417 312.979 67.4375 312.438 68.3125C312.104 69.9375 311.771 71.5417 311.438 73.125C311.146 74.4584 310.833 75.9167 310.5 77.5C310.208 79.0417 309.917 80.4167 309.625 81.625C309.375 81.8334 309.104 81.9792 308.812 82.0625C308.521 82.1459 308.25 82.1875 308 82.1875C307.708 82.1875 307.417 82.1667 307.125 82.125C306.792 82.0417 306.479 81.9167 306.188 81.75C305.938 81.5834 305.688 81.3542 305.438 81.0625C305.188 80.8125 305 80.4584 304.875 80C306.75 72.2917 308.229 66.1042 309.312 61.4375C310.396 56.7709 311.229 53.2084 311.812 50.75C312.479 47.8334 312.938 45.8125 313.188 44.6875C313.312 43.8959 313.417 43.125 313.5 42.375C313.583 41.7084 313.625 41.0209 313.625 40.3125C313.625 39.6042 313.562 38.9584 313.438 38.375C313.771 38.1667 314.125 38 314.5 37.875C314.917 37.75 315.312 37.6459 315.688 37.5625C316.146 37.4375 316.604 37.3334 317.062 37.25C317.521 37.1667 317.938 37.125 318.312 37.125C318.646 37.125 318.958 37.1667 319.25 37.25C319.542 37.2917 319.729 37.4167 319.812 37.625C320.062 37.8334 320.167 38.25 320.125 38.875C320.125 39.5 320.083 40.1459 320 40.8125C319.833 41.6042 319.646 42.4584 319.438 43.375C318.562 46.75 317.583 50.0417 316.5 53.25C315.417 56.4167 314.417 59.8125 313.5 63.4375C314.042 62.6042 314.688 61.75 315.438 60.875C316.188 60 317 59.2084 317.875 58.5C318.792 57.75 319.75 57.1459 320.75 56.6875C321.75 56.1875 322.812 55.9375 323.938 55.9375C324.521 55.9375 325.062 56.0417 325.562 56.25C326.104 56.4167 326.562 56.7292 326.938 57.1875C327.354 57.6042 327.667 58.1875 327.875 58.9375C328.083 59.6459 328.167 60.5417 328.125 61.625C328.125 62.2917 328.042 62.9792 327.875 63.6875C327.75 64.3959 327.562 65.1875 327.312 66.0625C327.062 66.8959 326.729 67.8334 326.312 68.875C325.938 69.9167 325.479 71.125 324.938 72.5C324.562 73.4584 324.271 74.2709 324.062 74.9375C323.854 75.6042 323.896 76.1875 324.188 76.6875C324.562 77.3542 325.292 77.5209 326.375 77.1875C327.5 76.8125 329.167 75.7292 331.375 73.9375C331.875 73.5209 332.438 73 333.062 72.375C333.688 71.75 334.292 71.125 334.875 70.5C335.458 69.8334 336 69.2084 336.5 68.625C337 68.0417 337.417 67.5834 337.75 67.25Z" fill="#FFF6F5"/>
<path d="M363.625 68C362.375 69.8334 360.958 71.625 359.375 73.375C357.792 75.0834 356.104 76.625 354.312 78C352.562 79.3334 350.75 80.4167 348.875 81.25C347.042 82.0834 345.25 82.5 343.5 82.5C342.583 82.5 341.583 82.2709 340.5 81.8125C339.458 81.3959 338.5 80.7292 337.625 79.8125C336.75 78.8959 336.042 77.7084 335.5 76.25C335 74.7917 334.854 73.0209 335.062 70.9375C335.229 69.2292 335.75 67.4375 336.625 65.5625C337.542 63.6459 338.646 61.8959 339.938 60.3125C341.271 58.7292 342.75 57.4167 344.375 56.375C346.042 55.3334 347.708 54.8125 349.375 54.8125C350.958 54.8125 352.104 55.2084 352.812 56C353.521 56.7917 353.833 57.7709 353.75 58.9375C353.625 60.2292 353.25 61.4167 352.625 62.5C352.042 63.5834 351.333 64.5625 350.5 65.4375C349.667 66.3125 348.771 67.1042 347.812 67.8125C346.896 68.5209 346.021 69.1667 345.188 69.75C344.271 70.375 343.396 70.9792 342.562 71.5625C341.729 72.1042 341 72.6042 340.375 73.0625C340.417 74.1042 340.604 74.9792 340.938 75.6875C341.271 76.3959 341.688 76.9792 342.188 77.4375C342.688 77.8542 343.25 78.1667 343.875 78.375C344.542 78.5417 345.208 78.625 345.875 78.625C347.292 78.625 348.771 78.1875 350.312 77.3125C351.854 76.3959 353.354 75.3125 354.812 74.0625C356.312 72.7709 357.688 71.4375 358.938 70.0625C360.229 68.6875 361.292 67.5 362.125 66.5C362.417 66.1667 362.708 65.9792 363 65.9375C363.333 65.8542 363.583 65.8959 363.75 66.0625C363.958 66.1875 364.062 66.4375 364.062 66.8125C364.062 67.1459 363.917 67.5417 363.625 68ZM347.625 58.375C347.125 58.375 346.521 58.625 345.812 59.125C345.146 59.625 344.479 60.3542 343.812 61.3125C343.146 62.2292 342.521 63.375 341.938 64.75C341.354 66.0834 340.917 67.625 340.625 69.375C341.125 69 341.667 68.625 342.25 68.25C342.833 67.8334 343.417 67.3959 344 66.9375C345.792 65.5625 347.042 64.3542 347.75 63.3125C348.458 62.2709 348.854 61.375 348.938 60.625C349.021 59.8334 348.938 59.2709 348.688 58.9375C348.438 58.5625 348.083 58.375 347.625 58.375Z" fill="#FFF6F5"/>
<path d="M377.688 82.5625C376.729 82.5625 375.896 82.375 375.188 82C374.521 81.6667 373.979 81.2084 373.562 80.625C373.146 80.0417 372.875 79.375 372.75 78.625C372.625 77.8334 372.667 77 372.875 76.125C373 75.5417 373.208 74.7709 373.5 73.8125C373.792 72.8125 374.083 71.75 374.375 70.625C374.708 69.4584 375 68.3125 375.25 67.1875C375.542 66.0209 375.729 64.9792 375.812 64.0625C375.896 63.1042 375.854 62.3334 375.688 61.75C375.521 61.125 375.167 60.8125 374.625 60.8125C373.958 60.8125 373.271 61.0417 372.562 61.5C371.854 61.9167 371.125 62.5 370.375 63.25C369.667 64 368.938 64.875 368.188 65.875C367.479 66.8334 366.771 67.8334 366.062 68.875C365.688 70.2917 365.375 71.5417 365.125 72.625C364.875 73.6667 364.646 74.625 364.438 75.5C364.271 76.3334 364.104 77.0834 363.938 77.75C363.771 78.375 363.625 78.9792 363.5 79.5625C363.375 79.9792 363 80.3959 362.375 80.8125C361.75 81.1875 361.083 81.5 360.375 81.75C359.667 82 359.062 82.125 358.562 82.125C358.021 82.125 357.792 81.9375 357.875 81.5625C357.917 81.3125 358.062 80.75 358.312 79.875C358.521 79 358.792 77.9792 359.125 76.8125C359.417 75.6042 359.729 74.3334 360.062 73C360.396 71.6667 360.708 70.3959 361 69.1875C361.208 68.2292 361.438 67.1667 361.688 66C361.896 65 362.146 63.8334 362.438 62.5C362.771 61.1667 363.146 59.7084 363.562 58.125C363.854 57.875 364.146 57.6875 364.438 57.5625C364.771 57.3959 365.104 57.2709 365.438 57.1875C365.771 57.0625 366.125 56.9792 366.5 56.9375C366.833 56.9375 367.167 56.9584 367.5 57C367.792 57.0417 368.083 57.125 368.375 57.25C368.708 57.3334 369 57.4792 369.25 57.6875C369.125 57.9792 368.979 58.3959 368.812 58.9375C368.646 59.4375 368.479 59.9792 368.312 60.5625C368.146 61.2292 367.938 61.9167 367.688 62.625C368.229 61.875 368.833 61.125 369.5 60.375C370.208 59.5834 370.958 58.875 371.75 58.25C372.583 57.625 373.458 57.125 374.375 56.75C375.292 56.3334 376.229 56.125 377.188 56.125C377.979 56.125 378.688 56.3542 379.312 56.8125C379.938 57.2709 380.417 57.9167 380.75 58.75C381.125 59.5417 381.333 60.5 381.375 61.625C381.458 62.75 381.312 63.9792 380.938 65.3125L380.25 68.0625C380.042 68.9375 379.771 69.9792 379.438 71.1875C379.146 72.3542 378.771 73.6459 378.312 75.0625C378.062 75.9792 377.958 76.7709 378 77.4375C378.083 78.1042 378.5 78.4375 379.25 78.4375C380 78.4375 380.938 77.9792 382.062 77.0625C383.229 76.1459 384.396 75.0417 385.562 73.75C386.729 72.4584 387.833 71.1459 388.875 69.8125C389.917 68.4375 390.708 67.3334 391.25 66.5C391.625 65.9584 391.979 65.6042 392.312 65.4375C392.646 65.2709 392.896 65.25 393.062 65.375C393.271 65.5 393.375 65.7917 393.375 66.25C393.375 66.6667 393.208 67.2084 392.875 67.875C392.583 68.4584 392.125 69.2292 391.5 70.1875C390.917 71.1459 390.208 72.1667 389.375 73.25C388.542 74.3334 387.646 75.4375 386.688 76.5625C385.729 77.6459 384.729 78.6459 383.688 79.5625C382.646 80.4375 381.604 81.1459 380.562 81.6875C379.562 82.2709 378.604 82.5625 377.688 82.5625Z" fill="#FFF6F5"/>
</svg>
