<svg width="20" height="20" viewBox="0 0 20 20" fill="none" xmlns="http://www.w3.org/2000/svg">
<path d="M12.0958 15.3417C10.7285 15.6842 9.27875 15.5142 7.94395 15.1018C7.57649 14.9893 7.22653 15.0418 6.8816 15.1442C6.0942 15.3767 5.31432 15.6317 4.53443 15.8791C4.17699 16.0541 3.76453 15.7192 3.95952 15.3417C4.25948 14.3344 4.91938 13.327 4.86938 12.2647C2.77469 8.07528 6.1992 3.33344 10.721 3.32095C10.721 3.33096 10.721 3.34345 10.721 3.35344C17.0526 3.32095 18.3174 13.9169 12.0958 15.3417ZM9.90864 8.35524C9.77367 8.07528 9.35123 8.10276 9.10378 8.20274C8.73382 8.68518 7.08905 9.79002 7.18403 10.2899C7.09156 11.1473 8.29889 10.5574 8.75131 10.4999C8.98627 10.4424 9.12876 10.4949 9.25625 10.6874C9.58121 11.0648 9.73367 11.7697 10.3211 11.7747C10.4586 11.7672 10.5811 11.7597 10.6685 11.6373C11.326 10.8774 12.0408 10.165 12.7157 9.42006C12.9857 8.84015 12.6233 8.5002 12.0484 8.74016C10.5061 9.43508 10.9535 9.96249 9.90864 8.35524Z" fill="white"/>
<path d="M8.74874 10.4999C8.29629 10.5574 7.09146 11.1473 7.18146 10.2899C7.08648 9.79002 8.73124 8.68517 9.10118 8.20274C9.34865 8.10025 9.77109 8.07525 9.90606 8.35521C10.9509 9.95998 10.5035 9.43508 12.0483 8.74016C12.6232 8.5002 12.9881 8.84015 12.7157 9.42006C12.0407 10.165 11.3259 10.8773 10.6685 11.6373C10.581 11.7597 10.4585 11.7672 10.321 11.7747C9.7311 11.7697 9.58111 11.0648 9.25615 10.6874C9.12618 10.4949 8.9862 10.4424 8.74874 10.4999Z" fill="#AC908F"/>
<path d="M12.7932 19.8786C8.67375 19.9661 2.66712 20.8359 0.647415 16.2441C-0.28496 13.8345 0.117482 11.1648 0 8.63522C0.0649918 4.08087 1.10484 0.248921 6.42407 0.171431C6.42407 0.166433 6.42407 0.163932 6.42407 0.158934C9.28115 0.11394 12.1907 -0.315998 14.9978 0.461391C20.3296 1.78621 19.8371 7.99531 19.6047 12.3247C19.2572 16.8765 17.7949 19.8061 12.7932 19.8786ZM7.94385 15.1018C9.27867 15.5117 10.7284 15.6842 12.0958 15.3418C18.3174 13.9195 17.0525 3.32348 10.721 3.35346C10.721 3.34348 10.721 3.33099 10.721 3.32098C6.1991 3.33597 2.77459 8.0753 4.8693 12.2647C4.91928 13.327 4.25938 14.3344 3.95942 15.3418C3.76195 15.7192 4.17441 16.0541 4.53436 15.8792C5.31672 15.6317 6.09661 15.3767 6.8815 15.1443C7.22395 15.0418 7.57391 14.9893 7.94385 15.1018Z" fill="#AC908F"/>
</svg>
