<svg width="20" height="20" viewBox="0 0 20 20" fill="none" xmlns="http://www.w3.org/2000/svg">
<path d="M0.00588584 2.54163C-0.0950028 1.11235 1.11529 0 2.54518 0H5.60598C6.33997 0 7.00197 0.442254 7.28428 1.12119L8.56418 4.1994C8.87598 4.94925 8.65468 5.81536 8.02169 6.32284L7.22384 6.96245C6.86778 7.24788 6.74674 7.74008 6.95784 8.14469C8.04279 10.224 9.64627 11.9886 11.5962 13.2665C12.0078 13.5362 12.5515 13.4289 12.8586 13.0443L13.69 12.0028C14.1964 11.3685 15.0607 11.1469 15.809 11.4592L18.8808 12.7418C19.5584 13.0247 19.9997 13.6881 19.9997 14.4236V17.4998C19.9997 18.9326 18.8486 20.0952 17.4224 19.9938C8.30199 19.3449 0.652457 11.7015 0.00588584 2.54163Z" fill="#AC908F"/>
</svg>
